<svg width="77" height="80" viewBox="0 0 77 80" fill="none" xmlns="http://www.w3.org/2000/svg">
<path d="M75.8719 65.1965L57.668 46.9645C55.8168 45.1104 53.8498 44.6855 51.5743 44.6855L41.7782 54.4968C41.7782 56.7758 42.2024 58.7844 44.0537 60.5998L62.2575 78.8318C63.7617 80.3382 66.1914 80.3382 67.6956 78.8318L75.8719 70.6428C77.376 69.175 77.376 66.7029 75.8719 65.1965Z" fill="url(#paint0_linear_55_627)"/>
<path d="M56.4339 31.6681C57.938 33.1745 60.3678 33.1745 61.8719 31.6681L64.6102 28.9255L72.7865 37.1145C77.2989 32.5951 77.2989 25.256 72.7865 20.7366L61.8719 9.80522C60.3678 8.29877 57.938 8.29877 56.4339 9.80522L53.6956 12.5477V2.73649C53.6956 0.341622 50.7645 -0.933066 49.0289 0.805145L39.2328 10.6164C37.4972 12.3546 38.77 15.2902 41.1612 15.2902H50.9573L48.219 18.0328C46.7149 19.5392 46.7149 21.9727 48.219 23.4792L49.5689 24.8311L38.4229 35.9943L22.5716 20.0414V16.1787C22.5716 15.1357 22.1474 14.1701 21.4532 13.4362L13.6625 5.59488C12.1584 4.08843 9.72865 4.08843 8.22452 5.59488L2.74793 11.0799C1.2438 12.5864 1.2438 15.0199 2.74793 16.5263L10.5386 24.3676C11.2714 25.1015 12.2355 25.4878 13.2769 25.4878H17.1336L33.062 41.4407L29.7838 44.724H24.77C22.7259 44.724 20.759 45.5351 19.332 47.003L1.1281 65.2349C-0.376033 66.7413 -0.376033 69.1748 1.1281 70.6813L9.30441 78.8702C10.8085 80.3766 13.2383 80.3766 14.7424 78.8702L32.9463 60.6383C34.4118 59.1704 35.2218 57.2391 35.2218 55.1919V50.209L55.084 30.3161L56.4339 31.6681Z" fill="url(#paint1_linear_55_627)"/>
<defs>
<linearGradient id="paint0_linear_55_627" x1="59.3891" y1="44.6855" x2="59.3891" y2="79.9616" gradientUnits="userSpaceOnUse">
<stop stop-color="#6E7DD1"/>
<stop offset="1" stop-color="#4F5A98"/>
</linearGradient>
<linearGradient id="paint1_linear_55_627" x1="38.0854" y1="0" x2="38.0854" y2="80" gradientUnits="userSpaceOnUse">
<stop stop-color="#6E7DD1"/>
<stop offset="1" stop-color="#4F5A98"/>
</linearGradient>
</defs>
</svg>
