<svg width="135" height="122" viewBox="0 0 135 122" fill="none" xmlns="http://www.w3.org/2000/svg">
<g opacity="0.2">
<path d="M104.032 5.11194C105.594 5.11194 106.86 3.96761 106.86 2.55599C106.86 1.14437 105.594 0 104.032 0C102.47 0 101.204 1.14437 101.204 2.55599C101.204 3.96761 102.47 5.11194 104.032 5.11194Z" fill="#34384E"/>
<path d="M122.77 5.11194C124.332 5.11194 125.598 3.96761 125.598 2.55599C125.598 1.14437 124.332 0 122.77 0C121.209 0 119.943 1.14437 119.943 2.55599C119.943 3.96761 121.209 5.11194 122.77 5.11194Z" fill="#34384E"/>
<path d="M113.401 16.976C114.963 16.976 116.229 15.8317 116.229 14.4201C116.229 13.0085 114.963 11.8641 113.401 11.8641C111.839 11.8641 110.573 13.0085 110.573 14.4201C110.573 15.8317 111.839 16.976 113.401 16.976Z" fill="#34384E"/>
<path d="M132.14 16.976C133.701 16.976 134.967 15.8317 134.967 14.4201C134.967 13.0085 133.701 11.8641 132.14 11.8641C130.578 11.8641 129.312 13.0085 129.312 14.4201C129.312 15.8317 130.578 16.976 132.14 16.976Z" fill="#34384E"/>
<path d="M104.032 29.2977C105.594 29.2977 106.86 28.1534 106.86 26.7418C106.86 25.3302 105.594 24.1859 104.032 24.1859C102.47 24.1859 101.204 25.3302 101.204 26.7418C101.204 28.1534 102.47 29.2977 104.032 29.2977Z" fill="#34384E"/>
<path d="M122.77 29.2977C124.332 29.2977 125.598 28.1534 125.598 26.7418C125.598 25.3302 124.332 24.1859 122.77 24.1859C121.209 24.1859 119.943 25.3302 119.943 26.7418C119.943 28.1534 121.209 29.2977 122.77 29.2977Z" fill="#34384E"/>
<path d="M113.401 41.1617C114.963 41.1617 116.229 40.0174 116.229 38.6058C116.229 37.1942 114.963 36.0499 113.401 36.0499C111.839 36.0499 110.573 37.1942 110.573 38.6058C110.573 40.0174 111.839 41.1617 113.401 41.1617Z" fill="#34384E"/>
<path d="M132.14 41.1617C133.701 41.1617 134.967 40.0174 134.967 38.6058C134.967 37.1942 133.701 36.0499 132.14 36.0499C130.578 36.0499 129.312 37.1942 129.312 38.6058C129.312 40.0174 130.578 41.1617 132.14 41.1617Z" fill="#34384E"/>
<path d="M104.032 53.5217C105.594 53.5217 106.86 52.3774 106.86 50.9658C106.86 49.5543 105.594 48.41 104.032 48.41C102.47 48.41 101.204 49.5543 101.204 50.9658C101.204 52.3774 102.47 53.5217 104.032 53.5217Z" fill="#34384E"/>
<path d="M122.77 53.5218C124.332 53.5218 125.598 52.3774 125.598 50.9659C125.598 49.5543 124.332 48.41 122.77 48.41C121.209 48.41 119.943 49.5543 119.943 50.9659C119.943 52.3774 121.209 53.5218 122.77 53.5218Z" fill="#34384E"/>
<path d="M113.401 65.3859C114.963 65.3859 116.229 64.2415 116.229 62.8299C116.229 61.4183 114.963 60.2739 113.401 60.2739C111.839 60.2739 110.573 61.4183 110.573 62.8299C110.573 64.2415 111.839 65.3859 113.401 65.3859Z" fill="#34384E"/>
<path d="M132.14 65.3859C133.701 65.3859 134.967 64.2415 134.967 62.8299C134.967 61.4183 133.701 60.2739 132.14 60.2739C130.578 60.2739 129.312 61.4183 129.312 62.8299C129.312 64.2415 130.578 65.3859 132.14 65.3859Z" fill="#34384E"/>
<path d="M104.032 77.7076C105.594 77.7076 106.86 76.5632 106.86 75.1516C106.86 73.74 105.594 72.5957 104.032 72.5957C102.47 72.5957 101.204 73.74 101.204 75.1516C101.204 76.5632 102.47 77.7076 104.032 77.7076Z" fill="#34384E"/>
<path d="M122.77 77.7076C124.332 77.7076 125.598 76.5632 125.598 75.1516C125.598 73.74 124.332 72.5957 122.77 72.5957C121.209 72.5957 119.943 73.74 119.943 75.1516C119.943 76.5632 121.209 77.7076 122.77 77.7076Z" fill="#34384E"/>
<path d="M113.401 89.5715C114.963 89.5715 116.229 88.4272 116.229 87.0156C116.229 85.6041 114.963 84.4598 113.401 84.4598C111.839 84.4598 110.573 85.6041 110.573 87.0156C110.573 88.4272 111.839 89.5715 113.401 89.5715Z" fill="#34384E"/>
<path d="M132.14 89.5715C133.701 89.5715 134.967 88.4272 134.967 87.0156C134.967 85.6041 133.701 84.4598 132.14 84.4598C130.578 84.4598 129.312 85.6041 129.312 87.0156C129.312 88.4272 130.578 89.5715 132.14 89.5715Z" fill="#34384E"/>
<path d="M104.032 101.893C105.594 101.893 106.86 100.749 106.86 99.3376C106.86 97.926 105.594 96.7817 104.032 96.7817C102.47 96.7817 101.204 97.926 101.204 99.3376C101.204 100.749 102.47 101.893 104.032 101.893Z" fill="#34384E"/>
<path d="M122.77 101.893C124.332 101.893 125.598 100.749 125.598 99.3376C125.598 97.926 124.332 96.7817 122.77 96.7817C121.209 96.7817 119.943 97.926 119.943 99.3376C119.943 100.749 121.209 101.893 122.77 101.893Z" fill="#34384E"/>
<path d="M113.401 113.758C114.963 113.758 116.229 112.613 116.229 111.202C116.229 109.79 114.963 108.646 113.401 108.646C111.839 108.646 110.573 109.79 110.573 111.202C110.573 112.613 111.839 113.758 113.401 113.758Z" fill="#34384E"/>
<path d="M132.14 113.758C133.701 113.758 134.967 112.613 134.967 111.202C134.967 109.79 133.701 108.646 132.14 108.646C130.578 108.646 129.312 109.79 129.312 111.202C129.312 112.613 130.578 113.758 132.14 113.758Z" fill="#34384E"/>
<path d="M70.3115 5.11194C71.8732 5.11194 73.1392 3.96761 73.1392 2.55599C73.1392 1.14437 71.8732 0 70.3115 0C68.7498 0 67.4839 1.14437 67.4839 2.55599C67.4839 3.96761 68.7498 5.11194 70.3115 5.11194Z" fill="#34384E"/>
<path d="M89.0496 5.11194C90.6113 5.11194 91.8773 3.96761 91.8773 2.55599C91.8773 1.14437 90.6113 0 89.0496 0C87.4879 0 86.222 1.14437 86.222 2.55599C86.222 3.96761 87.4879 5.11194 89.0496 5.11194Z" fill="#34384E"/>
<path d="M79.6805 16.976C81.2422 16.976 82.5082 15.8317 82.5082 14.4201C82.5082 13.0085 81.2422 11.8641 79.6805 11.8641C78.1188 11.8641 76.8528 13.0085 76.8528 14.4201C76.8528 15.8317 78.1188 16.976 79.6805 16.976Z" fill="#34384E"/>
<path d="M98.4189 16.976C99.9806 16.976 101.247 15.8317 101.247 14.4201C101.247 13.0085 99.9806 11.8641 98.4189 11.8641C96.8572 11.8641 95.5912 13.0085 95.5912 14.4201C95.5912 15.8317 96.8572 16.976 98.4189 16.976Z" fill="#34384E"/>
<path d="M70.3115 29.2977C71.8732 29.2977 73.1392 28.1534 73.1392 26.7418C73.1392 25.3302 71.8732 24.1859 70.3115 24.1859C68.7498 24.1859 67.4839 25.3302 67.4839 26.7418C67.4839 28.1534 68.7498 29.2977 70.3115 29.2977Z" fill="#34384E"/>
<path d="M89.0496 29.2977C90.6113 29.2977 91.8773 28.1534 91.8773 26.7418C91.8773 25.3302 90.6113 24.1859 89.0496 24.1859C87.4879 24.1859 86.222 25.3302 86.222 26.7418C86.222 28.1534 87.4879 29.2977 89.0496 29.2977Z" fill="#34384E"/>
<path d="M79.6805 41.1617C81.2422 41.1617 82.5082 40.0174 82.5082 38.6058C82.5082 37.1942 81.2422 36.0499 79.6805 36.0499C78.1188 36.0499 76.8528 37.1942 76.8528 38.6058C76.8528 40.0174 78.1188 41.1617 79.6805 41.1617Z" fill="#34384E"/>
<path d="M98.4189 41.1617C99.9806 41.1617 101.247 40.0174 101.247 38.6058C101.247 37.1942 99.9806 36.0499 98.4189 36.0499C96.8572 36.0499 95.5912 37.1942 95.5912 38.6058C95.5912 40.0174 96.8572 41.1617 98.4189 41.1617Z" fill="#34384E"/>
<path d="M70.3115 53.5218C71.8732 53.5218 73.1392 52.3774 73.1392 50.9659C73.1392 49.5543 71.8732 48.41 70.3115 48.41C68.7498 48.41 67.4839 49.5543 67.4839 50.9659C67.4839 52.3774 68.7498 53.5218 70.3115 53.5218Z" fill="#34384E"/>
<path d="M89.0496 53.5218C90.6113 53.5218 91.8773 52.3774 91.8773 50.9659C91.8773 49.5543 90.6113 48.41 89.0496 48.41C87.4879 48.41 86.222 49.5543 86.222 50.9659C86.222 52.3774 87.4879 53.5218 89.0496 53.5218Z" fill="#34384E"/>
<path d="M79.6805 65.3859C81.2422 65.3859 82.5082 64.2415 82.5082 62.8299C82.5082 61.4183 81.2422 60.2739 79.6805 60.2739C78.1188 60.2739 76.8528 61.4183 76.8528 62.8299C76.8528 64.2415 78.1188 65.3859 79.6805 65.3859Z" fill="#34384E"/>
<path d="M98.4189 65.3859C99.9806 65.3859 101.247 64.2415 101.247 62.8299C101.247 61.4183 99.9806 60.2739 98.4189 60.2739C96.8572 60.2739 95.5912 61.4183 95.5912 62.8299C95.5912 64.2415 96.8572 65.3859 98.4189 65.3859Z" fill="#34384E"/>
<path d="M70.3115 77.7076C71.8732 77.7076 73.1392 76.5632 73.1392 75.1516C73.1392 73.74 71.8732 72.5957 70.3115 72.5957C68.7498 72.5957 67.4839 73.74 67.4839 75.1516C67.4839 76.5632 68.7498 77.7076 70.3115 77.7076Z" fill="#34384E"/>
<path d="M89.0496 77.7076C90.6113 77.7076 91.8773 76.5632 91.8773 75.1516C91.8773 73.74 90.6113 72.5957 89.0496 72.5957C87.4879 72.5957 86.222 73.74 86.222 75.1516C86.222 76.5632 87.4879 77.7076 89.0496 77.7076Z" fill="#34384E"/>
<path d="M79.6805 89.5715C81.2422 89.5715 82.5082 88.4272 82.5082 87.0156C82.5082 85.6041 81.2422 84.4598 79.6805 84.4598C78.1188 84.4598 76.8528 85.6041 76.8528 87.0156C76.8528 88.4272 78.1188 89.5715 79.6805 89.5715Z" fill="#34384E"/>
<path d="M98.4189 89.5715C99.9806 89.5715 101.247 88.4272 101.247 87.0156C101.247 85.6041 99.9806 84.4598 98.4189 84.4598C96.8572 84.4598 95.5912 85.6041 95.5912 87.0156C95.5912 88.4272 96.8572 89.5715 98.4189 89.5715Z" fill="#34384E"/>
<path d="M70.3115 101.893C71.8732 101.893 73.1392 100.749 73.1392 99.3376C73.1392 97.926 71.8732 96.7817 70.3115 96.7817C68.7498 96.7817 67.4839 97.926 67.4839 99.3376C67.4839 100.749 68.7498 101.893 70.3115 101.893Z" fill="#34384E"/>
<path d="M89.0496 101.893C90.6113 101.893 91.8773 100.749 91.8773 99.3376C91.8773 97.926 90.6113 96.7817 89.0496 96.7817C87.4879 96.7817 86.222 97.926 86.222 99.3376C86.222 100.749 87.4879 101.893 89.0496 101.893Z" fill="#34384E"/>
<path d="M79.6805 113.758C81.2422 113.758 82.5082 112.613 82.5082 111.202C82.5082 109.79 81.2422 108.646 79.6805 108.646C78.1188 108.646 76.8528 109.79 76.8528 111.202C76.8528 112.613 78.1188 113.758 79.6805 113.758Z" fill="#34384E"/>
<path d="M98.4189 113.758C99.9806 113.758 101.247 112.613 101.247 111.202C101.247 109.79 99.9806 108.646 98.4189 108.646C96.8572 108.646 95.5912 109.79 95.5912 111.202C95.5912 112.613 96.8572 113.758 98.4189 113.758Z" fill="#34384E"/>
<path d="M36.5908 5.11194C38.1525 5.11194 39.4185 3.96761 39.4185 2.55599C39.4185 1.14437 38.1525 0 36.5908 0C35.0291 0 33.7632 1.14437 33.7632 2.55599C33.7632 3.96761 35.0291 5.11194 36.5908 5.11194Z" fill="#34384E"/>
<path d="M55.329 5.11194C56.8906 5.11194 58.1566 3.96761 58.1566 2.55599C58.1566 1.14437 56.8906 0 55.329 0C53.7673 0 52.5013 1.14437 52.5013 2.55599C52.5013 3.96761 53.7673 5.11194 55.329 5.11194Z" fill="#34384E"/>
<path d="M45.9597 16.976C47.5214 16.976 48.7874 15.8317 48.7874 14.4201C48.7874 13.0085 47.5214 11.8641 45.9597 11.8641C44.3981 11.8641 43.1321 13.0085 43.1321 14.4201C43.1321 15.8317 44.3981 16.976 45.9597 16.976Z" fill="#34384E"/>
<path d="M64.6981 16.976C66.2598 16.976 67.5258 15.8317 67.5258 14.4201C67.5258 13.0085 66.2598 11.8641 64.6981 11.8641C63.1365 11.8641 61.8705 13.0085 61.8705 14.4201C61.8705 15.8317 63.1365 16.976 64.6981 16.976Z" fill="#34384E"/>
<path d="M36.5908 29.2977C38.1525 29.2977 39.4185 28.1534 39.4185 26.7418C39.4185 25.3302 38.1525 24.1859 36.5908 24.1859C35.0291 24.1859 33.7632 25.3302 33.7632 26.7418C33.7632 28.1534 35.0291 29.2977 36.5908 29.2977Z" fill="#34384E"/>
<path d="M55.329 29.2977C56.8906 29.2977 58.1566 28.1534 58.1566 26.7418C58.1566 25.3302 56.8906 24.1859 55.329 24.1859C53.7673 24.1859 52.5013 25.3302 52.5013 26.7418C52.5013 28.1534 53.7673 29.2977 55.329 29.2977Z" fill="#34384E"/>
<path d="M45.9597 41.1617C47.5214 41.1617 48.7874 40.0174 48.7874 38.6058C48.7874 37.1942 47.5214 36.0499 45.9597 36.0499C44.3981 36.0499 43.1321 37.1942 43.1321 38.6058C43.1321 40.0174 44.3981 41.1617 45.9597 41.1617Z" fill="#34384E"/>
<path d="M64.6981 41.1617C66.2598 41.1617 67.5258 40.0174 67.5258 38.6058C67.5258 37.1942 66.2598 36.0499 64.6981 36.0499C63.1365 36.0499 61.8705 37.1942 61.8705 38.6058C61.8705 40.0174 63.1365 41.1617 64.6981 41.1617Z" fill="#34384E"/>
<path d="M36.5908 53.5218C38.1525 53.5218 39.4185 52.3774 39.4185 50.9659C39.4185 49.5543 38.1525 48.41 36.5908 48.41C35.0291 48.41 33.7632 49.5543 33.7632 50.9659C33.7632 52.3774 35.0291 53.5218 36.5908 53.5218Z" fill="#34384E"/>
<path d="M55.329 53.5218C56.8906 53.5218 58.1566 52.3774 58.1566 50.9659C58.1566 49.5543 56.8906 48.41 55.329 48.41C53.7673 48.41 52.5013 49.5543 52.5013 50.9659C52.5013 52.3774 53.7673 53.5218 55.329 53.5218Z" fill="#34384E"/>
<path d="M45.9597 65.3859C47.5214 65.3859 48.7874 64.2415 48.7874 62.8299C48.7874 61.4183 47.5214 60.2739 45.9597 60.2739C44.3981 60.2739 43.1321 61.4183 43.1321 62.8299C43.1321 64.2415 44.3981 65.3859 45.9597 65.3859Z" fill="#34384E"/>
<path d="M64.6981 65.3859C66.2598 65.3859 67.5258 64.2415 67.5258 62.8299C67.5258 61.4183 66.2598 60.2739 64.6981 60.2739C63.1365 60.2739 61.8705 61.4183 61.8705 62.8299C61.8705 64.2415 63.1365 65.3859 64.6981 65.3859Z" fill="#34384E"/>
<path d="M36.5908 77.7076C38.1525 77.7076 39.4185 76.5632 39.4185 75.1516C39.4185 73.74 38.1525 72.5957 36.5908 72.5957C35.0291 72.5957 33.7632 73.74 33.7632 75.1516C33.7632 76.5632 35.0291 77.7076 36.5908 77.7076Z" fill="#34384E"/>
<path d="M55.329 77.7076C56.8906 77.7076 58.1566 76.5632 58.1566 75.1516C58.1566 73.74 56.8906 72.5957 55.329 72.5957C53.7673 72.5957 52.5013 73.74 52.5013 75.1516C52.5013 76.5632 53.7673 77.7076 55.329 77.7076Z" fill="#34384E"/>
<path d="M45.9597 89.5715C47.5214 89.5715 48.7874 88.4272 48.7874 87.0156C48.7874 85.6041 47.5214 84.4598 45.9597 84.4598C44.3981 84.4598 43.1321 85.6041 43.1321 87.0156C43.1321 88.4272 44.3981 89.5715 45.9597 89.5715Z" fill="#34384E"/>
<path d="M64.6981 89.5715C66.2598 89.5715 67.5258 88.4272 67.5258 87.0156C67.5258 85.6041 66.2598 84.4598 64.6981 84.4598C63.1365 84.4598 61.8705 85.6041 61.8705 87.0156C61.8705 88.4272 63.1365 89.5715 64.6981 89.5715Z" fill="#34384E"/>
<path d="M36.5908 101.893C38.1525 101.893 39.4185 100.749 39.4185 99.3376C39.4185 97.926 38.1525 96.7817 36.5908 96.7817C35.0291 96.7817 33.7632 97.926 33.7632 99.3376C33.7632 100.749 35.0291 101.893 36.5908 101.893Z" fill="#34384E"/>
<path d="M55.329 101.893C56.8906 101.893 58.1566 100.749 58.1566 99.3376C58.1566 97.926 56.8906 96.7817 55.329 96.7817C53.7673 96.7817 52.5013 97.926 52.5013 99.3376C52.5013 100.749 53.7673 101.893 55.329 101.893Z" fill="#34384E"/>
<path d="M45.9597 113.758C47.5214 113.758 48.7874 112.613 48.7874 111.202C48.7874 109.79 47.5214 108.646 45.9597 108.646C44.3981 108.646 43.1321 109.79 43.1321 111.202C43.1321 112.613 44.3981 113.758 45.9597 113.758Z" fill="#34384E"/>
<path d="M64.6981 113.758C66.2598 113.758 67.5258 112.613 67.5258 111.202C67.5258 109.79 66.2598 108.646 64.6981 108.646C63.1365 108.646 61.8705 109.79 61.8705 111.202C61.8705 112.613 63.1365 113.758 64.6981 113.758Z" fill="#34384E"/>
<path d="M2.87014 5.11194C4.4318 5.11194 5.69775 3.96761 5.69775 2.55599C5.69775 1.14437 4.4318 0 2.87014 0C1.30849 0 0.0424805 1.14437 0.0424805 2.55599C0.0424805 3.96761 1.30849 5.11194 2.87014 5.11194Z" fill="#34384E"/>
<path d="M21.6082 5.11194C23.1698 5.11194 24.4359 3.96761 24.4359 2.55599C24.4359 1.14437 23.1698 0 21.6082 0C20.0465 0 18.7806 1.14437 18.7806 2.55599C18.7806 3.96761 20.0465 5.11194 21.6082 5.11194Z" fill="#34384E"/>
<path d="M12.239 16.976C13.8007 16.976 15.0667 15.8317 15.0667 14.4201C15.0667 13.0085 13.8007 11.8641 12.239 11.8641C10.6773 11.8641 9.41138 13.0085 9.41138 14.4201C9.41138 15.8317 10.6773 16.976 12.239 16.976Z" fill="#34384E"/>
<path d="M30.9774 16.976C32.5391 16.976 33.8051 15.8317 33.8051 14.4201C33.8051 13.0085 32.5391 11.8641 30.9774 11.8641C29.4158 11.8641 28.1498 13.0085 28.1498 14.4201C28.1498 15.8317 29.4158 16.976 30.9774 16.976Z" fill="#34384E"/>
<path d="M2.87014 29.2977C4.4318 29.2977 5.69775 28.1534 5.69775 26.7418C5.69775 25.3302 4.4318 24.1859 2.87014 24.1859C1.30849 24.1859 0.0424805 25.3302 0.0424805 26.7418C0.0424805 28.1534 1.30849 29.2977 2.87014 29.2977Z" fill="#34384E"/>
<path d="M21.6082 29.2977C23.1698 29.2977 24.4359 28.1534 24.4359 26.7418C24.4359 25.3302 23.1698 24.1859 21.6082 24.1859C20.0465 24.1859 18.7806 25.3302 18.7806 26.7418C18.7806 28.1534 20.0465 29.2977 21.6082 29.2977Z" fill="#34384E"/>
<path d="M12.239 41.1617C13.8007 41.1617 15.0667 40.0174 15.0667 38.6058C15.0667 37.1942 13.8007 36.0499 12.239 36.0499C10.6773 36.0499 9.41138 37.1942 9.41138 38.6058C9.41138 40.0174 10.6773 41.1617 12.239 41.1617Z" fill="#34384E"/>
<path d="M30.9774 41.1617C32.5391 41.1617 33.8051 40.0174 33.8051 38.6058C33.8051 37.1942 32.5391 36.0499 30.9774 36.0499C29.4158 36.0499 28.1498 37.1942 28.1498 38.6058C28.1498 40.0174 29.4158 41.1617 30.9774 41.1617Z" fill="#34384E"/>
<path d="M2.87014 53.5218C4.4318 53.5218 5.69775 52.3774 5.69775 50.9659C5.69775 49.5543 4.4318 48.41 2.87014 48.41C1.30849 48.41 0.0424805 49.5543 0.0424805 50.9659C0.0424805 52.3774 1.30849 53.5218 2.87014 53.5218Z" fill="#34384E"/>
<path d="M21.6082 53.5218C23.1698 53.5218 24.4359 52.3774 24.4359 50.9659C24.4359 49.5543 23.1698 48.41 21.6082 48.41C20.0465 48.41 18.7806 49.5543 18.7806 50.9659C18.7806 52.3774 20.0465 53.5218 21.6082 53.5218Z" fill="#34384E"/>
<path d="M12.239 65.3859C13.8007 65.3859 15.0667 64.2415 15.0667 62.8299C15.0667 61.4183 13.8007 60.2739 12.239 60.2739C10.6773 60.2739 9.41138 61.4183 9.41138 62.8299C9.41138 64.2415 10.6773 65.3859 12.239 65.3859Z" fill="#34384E"/>
<path d="M30.9774 65.3859C32.5391 65.3859 33.8051 64.2415 33.8051 62.8299C33.8051 61.4183 32.5391 60.2739 30.9774 60.2739C29.4158 60.2739 28.1498 61.4183 28.1498 62.8299C28.1498 64.2415 29.4158 65.3859 30.9774 65.3859Z" fill="#34384E"/>
<path d="M2.87014 77.7076C4.4318 77.7076 5.69775 76.5632 5.69775 75.1516C5.69775 73.74 4.4318 72.5957 2.87014 72.5957C1.30849 72.5957 0.0424805 73.74 0.0424805 75.1516C0.0424805 76.5632 1.30849 77.7076 2.87014 77.7076Z" fill="#34384E"/>
<path d="M21.6082 77.7076C23.1698 77.7076 24.4359 76.5632 24.4359 75.1516C24.4359 73.74 23.1698 72.5957 21.6082 72.5957C20.0465 72.5957 18.7806 73.74 18.7806 75.1516C18.7806 76.5632 20.0465 77.7076 21.6082 77.7076Z" fill="#34384E"/>
<path d="M12.239 89.5715C13.8007 89.5715 15.0667 88.4272 15.0667 87.0156C15.0667 85.6041 13.8007 84.4598 12.239 84.4598C10.6773 84.4598 9.41138 85.6041 9.41138 87.0156C9.41138 88.4272 10.6773 89.5715 12.239 89.5715Z" fill="#34384E"/>
<path d="M30.9774 89.5715C32.5391 89.5715 33.8051 88.4272 33.8051 87.0156C33.8051 85.6041 32.5391 84.4598 30.9774 84.4598C29.4158 84.4598 28.1498 85.6041 28.1498 87.0156C28.1498 88.4272 29.4158 89.5715 30.9774 89.5715Z" fill="#34384E"/>
<path d="M2.87014 101.893C4.4318 101.893 5.69775 100.749 5.69775 99.3376C5.69775 97.926 4.4318 96.7817 2.87014 96.7817C1.30849 96.7817 0.0424805 97.926 0.0424805 99.3376C0.0424805 100.749 1.30849 101.893 2.87014 101.893Z" fill="#34384E"/>
<path d="M21.6082 101.893C23.1698 101.893 24.4359 100.749 24.4359 99.3376C24.4359 97.926 23.1698 96.7817 21.6082 96.7817C20.0465 96.7817 18.7806 97.926 18.7806 99.3376C18.7806 100.749 20.0465 101.893 21.6082 101.893Z" fill="#34384E"/>
<path d="M12.239 113.758C13.8007 113.758 15.0667 112.613 15.0667 111.202C15.0667 109.79 13.8007 108.646 12.239 108.646C10.6773 108.646 9.41138 109.79 9.41138 111.202C9.41138 112.613 10.6773 113.758 12.239 113.758Z" fill="#34384E"/>
<path d="M30.9774 113.758C32.5391 113.758 33.8051 112.613 33.8051 111.202C33.8051 109.79 32.5391 108.646 30.9774 108.646C29.4158 108.646 28.1498 109.79 28.1498 111.202C28.1498 112.613 29.4158 113.758 30.9774 113.758Z" fill="#34384E"/>
</g>
</svg>
