<svg width="361" height="504" viewBox="0 0 361 504" fill="none" xmlns="http://www.w3.org/2000/svg">
<path d="M44.8102 471.19C81.0743 488.444 139.855 488.444 176.04 471.19C212.224 453.936 212.304 425.978 176.04 408.724C139.775 391.47 81.0103 391.47 44.8102 408.724C8.61007 425.978 8.48204 453.952 44.8102 471.19Z" fill="#2E2E2E"/>
<path d="M358.736 428.487L229.107 503.174C228.033 503.717 226.846 504 225.643 504C224.439 504 223.252 503.717 222.178 503.174L60.1415 409.747C59.7235 409.605 59.3604 409.337 59.1033 408.978C58.8461 408.62 58.7078 408.191 58.7078 407.75C58.7078 407.309 58.8461 406.88 59.1033 406.521C59.3604 406.163 59.7235 405.894 60.1415 405.753L189.771 331.066C190.844 330.522 192.031 330.239 193.235 330.239C194.439 330.239 195.626 330.522 196.7 331.066L358.784 424.493C359.201 424.639 359.561 424.912 359.814 425.274C360.066 425.635 360.2 426.066 360.194 426.507C360.189 426.947 360.046 427.375 359.784 427.731C359.523 428.086 359.156 428.35 358.736 428.487Z" fill="#2E2E2E"/>
<path d="M333.947 410.993L330.746 409.188L333.019 408.165C333.019 408.165 334.795 408.645 334.843 408.725C334.828 409.137 334.786 409.548 334.715 409.955L333.947 410.993Z" fill="#E0E0E0"/>
<path d="M333.947 410.993L330.746 409.188L333.019 408.165C333.019 408.165 334.795 408.645 334.843 408.725C334.828 409.137 334.786 409.548 334.715 409.955L333.947 410.993Z" fill="#6E7DD1"/>
<path opacity="0.1" d="M333.947 410.993L330.746 409.188L333.019 408.165C333.019 408.165 334.795 408.645 334.843 408.725C334.828 409.137 334.786 409.548 334.715 409.955L333.947 410.993Z" fill="white"/>
<path d="M214.848 470.887C216.267 471.604 217.835 471.978 219.425 471.978C221.015 471.978 222.583 471.604 224.002 470.887L326.649 411.776L173.015 323.206L169.43 321.145L66.783 380.255C64.2704 381.709 64.2704 384.09 66.783 385.527L214.848 470.887Z" fill="#6E7DD1"/>
<path opacity="0.8" d="M214.848 470.887C216.267 471.604 217.835 471.978 219.425 471.978C221.015 471.978 222.583 471.604 224.002 470.887L326.649 411.776L173.015 323.206L169.43 321.145L66.783 380.255C64.2704 381.709 64.2704 384.09 66.783 385.527L214.848 470.887Z" fill="white"/>
<path d="M253.401 359.119L289.201 379.68L312.374 366.324L339.276 381.885V401.232C339.276 403.58 336.635 406.919 335.675 406.376C333.899 406.805 332.172 407.415 330.522 408.197C327.83 409.725 325.332 411.57 323.08 413.693L240.822 366.293L253.401 359.119Z" fill="#E0E0E0"/>
<path d="M253.401 359.119L289.201 379.68L312.374 366.324L339.276 381.885V401.232C339.276 403.58 336.635 406.919 335.675 406.376C333.899 406.805 332.172 407.415 330.522 408.197C327.83 409.725 325.332 411.57 323.08 413.693L240.822 366.293L253.401 359.119Z" fill="#6E7DD1"/>
<path opacity="0.1" d="M253.401 359.119L289.201 379.68L312.374 366.324L339.276 381.885V401.232C339.276 403.58 336.635 406.919 335.675 406.376C333.899 406.805 332.172 407.415 330.522 408.197C327.83 409.725 325.332 411.57 323.08 413.693L240.822 366.293L253.401 359.119Z" fill="white"/>
<path d="M224.05 470.871L230.244 467.292L323.176 413.741C323.246 412.53 323.688 411.37 324.441 410.418C325.538 408.962 326.921 407.744 328.506 406.839C329.831 406.029 331.339 405.562 332.891 405.481C333.929 405.467 334.943 405.799 335.771 406.424C336.981 404.053 337.57 401.415 337.484 398.755H341.004C341.004 403.548 339.404 408.469 337.436 409.587L335.659 410.626C334.651 411.201 333.851 411.233 333.851 410.626V409.683C333.851 408.629 332.25 408.677 330.266 409.827C328.282 410.977 326.697 412.734 326.697 413.789V414.747C326.697 415.29 325.321 416.505 323.657 417.463L233.78 469.273L224.05 474.865C222.642 475.592 221.075 475.96 219.489 475.935V471.877C221.071 471.942 222.643 471.595 224.05 470.871Z" fill="#6E7DD1"/>
<path opacity="0.6" d="M224.05 470.871L230.244 467.292L323.176 413.741C323.246 412.53 323.688 411.37 324.441 410.418C325.538 408.962 326.921 407.744 328.506 406.839C329.831 406.029 331.339 405.562 332.891 405.481C333.929 405.467 334.943 405.799 335.771 406.424C336.981 404.053 337.57 401.415 337.484 398.755H341.004C341.004 403.548 339.404 408.469 337.436 409.587L335.659 410.626C334.651 411.201 333.851 411.233 333.851 410.626V409.683C333.851 408.629 332.25 408.677 330.266 409.827C328.282 410.977 326.697 412.734 326.697 413.789V414.747C326.697 415.29 325.321 416.505 323.657 417.463L233.78 469.273L224.05 474.865C222.642 475.592 221.075 475.96 219.489 475.935V471.877C221.071 471.942 222.643 471.595 224.05 470.871Z" fill="white"/>
<path d="M64.8627 382.812V386.949C64.9155 387.502 65.1115 388.031 65.4314 388.485C65.7513 388.938 66.184 389.301 66.6871 389.537L205.07 469.289L214.784 474.881C216.193 475.608 217.76 475.976 219.345 475.951V471.893C217.749 471.931 216.171 471.551 214.768 470.791L208.591 467.228L66.6871 385.416C66.1818 385.178 65.7476 384.813 65.4276 384.356C65.1075 383.899 64.9128 383.367 64.8627 382.812Z" fill="#6E7DD1"/>
<path opacity="0.1" d="M64.8627 382.812V386.949C64.9155 387.502 65.1115 388.031 65.4314 388.485C65.7513 388.938 66.184 389.301 66.6871 389.537L205.07 469.289L214.784 474.881C216.193 475.608 217.76 475.976 219.345 475.951V471.893C217.749 471.931 216.171 471.551 214.768 470.791L208.591 467.228L66.6871 385.416C66.1818 385.178 65.7476 384.813 65.4276 384.356C65.1075 383.899 64.9128 383.367 64.8627 382.812Z" fill="white"/>
<path d="M219.425 444.622V468.33C220.484 468.362 221.533 468.114 222.466 467.612L233.668 461.125L319.432 411.696V386.965L219.425 444.622Z" fill="white"/>
<path d="M69.3276 361.068V379.297C69.3839 380.352 69.6885 381.38 70.2168 382.296C70.745 383.212 71.4822 383.99 72.3683 384.569L205.198 461.093L216.401 467.58C217.334 468.08 218.382 468.328 219.441 468.299V447.13L69.3276 361.068Z" fill="#F0F0F0"/>
<path d="M319.496 411.664C319.581 410.451 320.033 409.292 320.792 408.341C321.894 406.894 323.277 405.682 324.857 404.778C326.172 403.956 327.676 403.483 329.226 403.404C330.268 403.396 331.285 403.727 332.122 404.347V379.664L319.528 386.933L319.496 411.664Z" fill="#455A64"/>
<path d="M324.537 404.986C323.078 405.846 321.806 406.986 320.792 408.341C320.033 409.292 319.581 410.451 319.496 411.664V388.084H324.521L324.537 404.986Z" fill="#F5F5F5"/>
<path d="M172.983 294.193L326.617 382.764V384.824C326.617 385.959 328.218 386.422 330.186 385.24C332.154 384.058 333.771 382.684 333.771 380.719L333.963 378.77L177.4 288.538L176.776 288.17C176.612 288.459 176.519 288.782 176.504 289.113V290.072C176.536 291.254 174.951 293.091 172.983 294.193Z" fill="#6E7DD1"/>
<path opacity="0.6" d="M172.983 294.193L326.617 382.764V384.824C326.617 385.959 328.218 386.422 330.186 385.24C332.154 384.058 333.771 382.684 333.771 380.719L333.963 378.77L177.4 288.538L176.776 288.17C176.612 288.459 176.519 288.782 176.504 289.113V290.072C176.536 291.254 174.951 293.091 172.983 294.193Z" fill="white"/>
<path d="M224.05 441.986L324.425 384.122C325.689 383.467 326.857 382.923 327.353 383.179L326.697 382.812L173.063 294.241L171.27 293.203C170.465 292.974 169.62 292.92 168.792 293.044C167.964 293.168 167.172 293.467 166.469 293.922L66.8791 351.339C64.3665 352.793 64.3665 355.157 66.8791 356.611L214.976 441.986C216.385 442.69 217.938 443.057 219.513 443.057C221.088 443.057 222.642 442.69 224.05 441.986Z" fill="#6E7DD1"/>
<path opacity="0.8" d="M224.05 441.986L324.425 384.122C325.689 383.467 326.857 382.923 327.353 383.179L326.697 382.812L173.063 294.241L171.27 293.203C170.465 292.974 169.62 292.92 168.792 293.044C167.964 293.168 167.172 293.467 166.469 293.922L66.8791 351.339C64.3665 352.793 64.3665 355.157 66.8791 356.611L214.976 441.986C216.385 442.69 217.938 443.057 219.513 443.057C221.088 443.057 222.642 442.69 224.05 441.986Z" fill="white"/>
<path d="M176.808 288.218L177.432 288.586L333.995 378.866C334.074 378.699 334.189 378.552 334.331 378.434L334.859 378.131L335.995 377.492L337.388 376.677C337.658 376.498 337.981 376.416 338.304 376.445C338.627 376.474 338.93 376.612 339.164 376.837C339.23 376.881 339.29 376.935 339.34 376.996C339.529 377.189 339.685 377.41 339.804 377.651C339.974 377.928 340.114 378.223 340.22 378.53C340.343 378.859 340.444 379.195 340.524 379.537C340.62 379.936 340.684 380.319 340.764 380.735C340.808 380.972 340.835 381.212 340.844 381.454C340.844 381.645 340.844 381.821 340.844 382.045C340.844 382.268 340.844 382.939 340.844 383.403V379.009C340.679 377.566 340.179 376.181 339.385 374.963C338.59 373.746 337.523 372.73 336.267 371.996L188.154 286.621C186.934 285.902 185.564 285.474 184.151 285.372C182.738 285.269 181.32 285.494 180.008 286.03L178.136 287.116L177.336 287.563C177.104 287.731 176.922 287.957 176.808 288.218Z" fill="#6E7DD1"/>
<path opacity="0.8" d="M176.808 288.218L177.432 288.586L333.995 378.866C334.074 378.699 334.189 378.552 334.331 378.434L334.859 378.131L335.995 377.492L337.388 376.677C337.658 376.498 337.981 376.416 338.304 376.445C338.627 376.474 338.93 376.612 339.164 376.837C339.23 376.881 339.29 376.935 339.34 376.996C339.529 377.189 339.685 377.41 339.804 377.651C339.974 377.928 340.114 378.223 340.22 378.53C340.343 378.859 340.444 379.195 340.524 379.537C340.62 379.936 340.684 380.319 340.764 380.735C340.808 380.972 340.835 381.212 340.844 381.454C340.844 381.645 340.844 381.821 340.844 382.045C340.844 382.268 340.844 382.939 340.844 383.403V379.009C340.679 377.566 340.179 376.181 339.385 374.963C338.59 373.746 337.523 372.73 336.267 371.996L188.154 286.621C186.934 285.902 185.564 285.474 184.151 285.372C182.738 285.269 181.32 285.494 180.008 286.03L178.136 287.116L177.336 287.563C177.104 287.731 176.922 287.957 176.808 288.218Z" fill="white"/>
<path d="M224.05 442.002L230.26 438.408L301.652 397.286L324.441 384.154C326.041 383.195 327.385 382.86 327.465 383.355V384.377C327.465 385.528 329.066 385.528 331.034 384.377C331.764 384.061 332.404 383.568 332.895 382.943C333.387 382.318 333.715 381.581 333.851 380.799V379.68C333.827 379.431 333.863 379.18 333.955 378.947C334.046 378.713 334.192 378.505 334.379 378.338L334.907 378.035L336.043 377.396L337.436 376.581C337.706 376.402 338.029 376.32 338.352 376.349C338.675 376.378 338.978 376.516 339.212 376.741C339.278 376.785 339.338 376.839 339.388 376.901C339.507 377.025 339.609 377.165 339.692 377.316C339.76 377.385 339.814 377.467 339.852 377.556C340.022 377.833 340.162 378.127 340.268 378.434C340.391 378.763 340.492 379.099 340.572 379.441C340.668 379.84 340.732 380.224 340.812 380.639C340.856 380.876 340.883 381.117 340.892 381.358C340.892 381.55 340.892 381.725 340.892 381.949C340.892 382.173 340.892 382.844 340.892 383.307V398.708H337.372V383.307C337.372 382.939 337.372 382.572 337.372 382.221L337.276 381.342C337.283 381.316 337.283 381.288 337.276 381.262C336.956 384.058 334.283 386.55 331.962 387.86C330.674 388.672 329.196 389.134 327.674 389.202C326.5 389.217 325.361 388.802 324.473 388.036L324.153 388.212L323.545 388.579L233.668 440.389L224.05 446.044C222.665 446.752 221.126 447.109 219.569 447.083V443.025C221.125 443.058 222.664 442.706 224.05 442.002Z" fill="#6E7DD1"/>
<path opacity="0.6" d="M224.05 442.002L230.26 438.408L301.652 397.286L324.441 384.154C326.041 383.195 327.385 382.86 327.465 383.355V384.377C327.465 385.528 329.066 385.528 331.034 384.377C331.764 384.061 332.404 383.568 332.895 382.943C333.387 382.318 333.715 381.581 333.851 380.799V379.68C333.827 379.431 333.863 379.18 333.955 378.947C334.046 378.713 334.192 378.505 334.379 378.338L334.907 378.035L336.043 377.396L337.436 376.581C337.706 376.402 338.029 376.32 338.352 376.349C338.675 376.378 338.978 376.516 339.212 376.741C339.278 376.785 339.338 376.839 339.388 376.901C339.507 377.025 339.609 377.165 339.692 377.316C339.76 377.385 339.814 377.467 339.852 377.556C340.022 377.833 340.162 378.127 340.268 378.434C340.391 378.763 340.492 379.099 340.572 379.441C340.668 379.84 340.732 380.224 340.812 380.639C340.856 380.876 340.883 381.117 340.892 381.358C340.892 381.55 340.892 381.725 340.892 381.949C340.892 382.173 340.892 382.844 340.892 383.307V398.708H337.372V383.307C337.372 382.939 337.372 382.572 337.372 382.221L337.276 381.342C337.283 381.316 337.283 381.288 337.276 381.262C336.956 384.058 334.283 386.55 331.962 387.86C330.674 388.672 329.196 389.134 327.674 389.202C326.5 389.217 325.361 388.802 324.473 388.036L324.153 388.212L323.545 388.579L233.668 440.389L224.05 446.044C222.665 446.752 221.126 447.109 219.569 447.083V443.025C221.125 443.058 222.664 442.706 224.05 442.002Z" fill="white"/>
<path d="M64.8627 353.927V358.097C64.9128 358.652 65.1075 359.185 65.4276 359.641C65.7476 360.098 66.1818 360.464 66.6871 360.701L205.07 440.453L214.784 446.06C216.193 446.787 217.76 447.155 219.345 447.131V443.073C217.752 443.107 216.176 442.733 214.768 441.986L208.591 438.424L66.6871 356.611C66.1707 356.367 65.7292 355.989 65.4083 355.517C65.0875 355.046 64.8991 354.496 64.8627 353.927Z" fill="#6E7DD1"/>
<path opacity="0.1" d="M64.8627 353.927V358.097C64.9128 358.652 65.1075 359.185 65.4276 359.641C65.7476 360.098 66.1818 360.464 66.6871 360.701L205.07 440.453L214.784 446.06C216.193 446.787 217.76 447.155 219.345 447.131V443.073C217.752 443.107 216.176 442.733 214.768 441.986L208.591 438.424L66.6871 356.611C66.1707 356.367 65.7292 355.989 65.4083 355.517C65.0875 355.046 64.8991 354.496 64.8627 353.927Z" fill="white"/>
<path d="M166.341 293.922C167.044 293.467 167.836 293.168 168.664 293.044C169.492 292.92 170.337 292.974 171.142 293.203L172.935 294.241C174.903 293.091 176.488 291.254 176.488 290.119V289.161C176.503 288.83 176.596 288.507 176.76 288.218C176.885 287.959 177.079 287.738 177.32 287.579L178.12 287.132L179.992 286.046C181.304 285.51 182.722 285.285 184.135 285.388C185.548 285.49 186.918 285.918 188.138 286.637L336.251 372.012L336.411 372.108L231.892 432.353C230.948 432.834 229.903 433.085 228.843 433.085C227.783 433.085 226.739 432.834 225.795 432.353L76.7213 345.588L166.341 293.922Z" fill="#263238"/>
<path d="M240.262 423.598L236.309 421.329C237.373 420.96 238.516 420.877 239.622 421.09C240.678 421.633 240.262 423.598 240.262 423.598Z" fill="#6E7DD1"/>
<path opacity="0.7" d="M240.262 423.598L236.309 421.329C237.373 420.96 238.516 420.877 239.622 421.09C240.678 421.633 240.262 423.598 240.262 423.598Z" fill="black"/>
<path d="M242.982 421.154C242.533 420.667 241.987 420.279 241.38 420.013C240.773 419.748 240.117 419.611 239.454 419.611C238.791 419.611 238.135 419.748 237.527 420.013C236.92 420.279 236.374 420.667 235.925 421.154C232.068 424.684 231.876 428.183 230.276 428.135C228.675 428.087 228.675 399.938 228.675 399.938L243.895 414.012L242.982 421.154Z" fill="#6E7DD1"/>
<path opacity="0.7" d="M242.982 421.154C242.533 420.667 241.987 420.279 241.38 420.013C240.773 419.748 240.117 419.611 239.454 419.611C238.791 419.611 238.135 419.748 237.527 420.013C236.92 420.279 236.374 420.667 235.925 421.154C232.068 424.684 231.876 428.183 230.276 428.135C228.675 428.087 228.675 399.938 228.675 399.938L243.895 414.012L242.982 421.154Z" fill="black"/>
<path d="M83.8749 318.828L83.6188 318.684L86.0514 317.279L190.843 256.89L343.533 355.525C346.046 356.979 346.494 359.087 344.525 360.206L340.956 362.267L243.015 418.805L242.31 418.294L83.8749 318.828Z" fill="#6E7DD1"/>
<path opacity="0.5" d="M83.8749 318.828L83.6188 318.684L86.0514 317.279L190.843 256.89L343.533 355.525C346.046 356.979 346.494 359.087 344.525 360.206L340.956 362.267L243.015 418.805L242.31 418.294L83.8749 318.828Z" fill="black"/>
<path d="M229.939 386.614L237.525 385.016V415.371C232.948 417.32 230.036 419.141 229.523 422.959L229.939 386.614Z" fill="#455A64"/>
<path d="M240.87 415.77L337.9 359.854C338.789 359.277 339.529 358.499 340.06 357.583C340.591 356.667 340.898 355.639 340.956 354.582V324.691L242.982 381.645C242.982 381.645 241.814 385.879 238.341 387.205C234.869 388.531 237.525 389.889 237.525 389.889V415.45C240.518 415.019 240.87 415.77 240.87 415.77Z" fill="#F0F0F0"/>
<path d="M231.924 385.575C232.932 385 233.732 384.968 233.732 385.575V386.518C233.732 387.572 235.333 387.524 237.317 386.374C239.302 385.224 240.902 383.467 240.902 382.412V381.454C240.902 380.91 242.262 379.696 243.927 378.738L86.0674 288.442L83.6188 289.848C83.2796 290.207 83.0662 290.667 83.0107 291.158V292.116C83.0107 293.171 81.4103 294.944 79.4419 296.078C77.4735 297.213 75.8571 297.277 75.8571 296.222V295.264C75.8571 294.721 75.0569 294.768 74.0647 295.344L231.924 385.575Z" fill="#6E7DD1"/>
<path opacity="0.6" d="M231.924 385.575C232.932 385 233.732 384.968 233.732 385.575V386.518C233.732 387.572 235.333 387.524 237.317 386.374C239.302 385.224 240.902 383.467 240.902 382.412V381.454C240.902 380.91 242.262 379.696 243.927 378.738L86.0674 288.442L83.6188 289.848C83.2796 290.207 83.0662 290.667 83.0107 291.158V292.116C83.0107 293.171 81.4103 294.944 79.4419 296.078C77.4735 297.213 75.8571 297.277 75.8571 296.222V295.264C75.8571 294.721 75.0569 294.768 74.0647 295.344L231.924 385.575Z" fill="black"/>
<path d="M83.8749 289.928L83.6188 289.784L86.0514 288.378L190.843 227.989L343.533 316.016C346.046 317.47 346.494 319.563 344.525 320.697L340.956 322.742L242.982 381.645L83.8749 289.928Z" fill="#6E7DD1"/>
<path opacity="0.5" d="M83.8749 289.928L83.6188 289.784L86.0514 288.378L190.843 227.989L343.533 316.016C346.046 317.47 346.494 319.563 344.525 320.697L340.956 322.742L242.982 381.645L83.8749 289.928Z" fill="black"/>
<path d="M75.8251 294.289L233.652 385.256L228.131 389.569L70.896 298.954C71.2794 297.789 72.011 296.768 72.9925 296.03L75.8251 294.289Z" fill="#6E7DD1"/>
<path opacity="0.5" d="M75.8251 294.289L233.652 385.256L228.131 389.569L70.896 298.954C71.2794 297.789 72.011 296.768 72.9925 296.03L75.8251 294.289Z" fill="black"/>
<path d="M71.4241 339.613C71.3268 339.553 71.2357 339.483 71.152 339.405C71.0795 339.369 71.0185 339.314 70.976 339.245C70.8468 339.12 70.7387 338.974 70.6559 338.814C70.5852 338.753 70.5303 338.677 70.4959 338.59C70.3246 338.316 70.1901 338.021 70.0958 337.712C69.9629 337.38 69.8558 337.038 69.7757 336.689C69.6797 336.306 69.6157 335.922 69.5517 335.507C69.4962 335.271 69.464 335.03 69.4556 334.788V334.197C69.4556 333.766 69.4556 333.302 69.4556 332.839V306.814C69.4269 304.082 69.9269 301.37 70.928 298.826L228.163 389.441L228.819 430.212L71.6001 339.565L71.4241 339.613Z" fill="#6E7DD1"/>
<path opacity="0.7" d="M71.4241 339.613C71.3268 339.553 71.2357 339.483 71.152 339.405C71.0795 339.369 71.0185 339.314 70.976 339.245C70.8468 339.12 70.7387 338.974 70.6559 338.814C70.5852 338.753 70.5303 338.677 70.4959 338.59C70.3246 338.316 70.1901 338.021 70.0958 337.712C69.9629 337.38 69.8558 337.038 69.7757 336.689C69.6797 336.306 69.6157 335.922 69.5517 335.507C69.4962 335.271 69.464 335.03 69.4556 334.788V334.197C69.4556 333.766 69.4556 333.302 69.4556 332.839V306.814C69.4269 304.082 69.9269 301.37 70.928 298.826L228.163 389.441L228.819 430.212L71.6001 339.565L71.4241 339.613Z" fill="black"/>
<path opacity="0.79" d="M228.051 389.505C228.051 389.505 104.215 331.657 92.9489 326.353C85.5072 322.854 81.8584 330.203 83.6188 337.807C85.2192 344.453 91.7326 351.307 91.7326 351.307L71.4881 339.629C71.3908 339.569 71.2997 339.499 71.216 339.421C71.1435 339.385 71.0825 339.33 71.04 339.261C70.9108 339.136 70.8027 338.99 70.7199 338.83C70.6493 338.769 70.5943 338.693 70.5599 338.606C70.3886 338.332 70.2541 338.037 70.1598 337.728C70.0269 337.396 69.9198 337.054 69.8397 336.705C69.7437 336.322 69.6797 335.938 69.6157 335.523C69.5602 335.287 69.5281 335.046 69.5197 334.804V334.213C69.5197 333.782 69.5197 333.318 69.5197 332.855V306.814C69.4909 304.082 69.9909 301.37 70.992 298.826L228.051 389.505Z" fill="#263238"/>
<path d="M226.595 397.445H230.116C230.033 394.788 230.616 392.152 231.812 389.777C232.649 390.397 233.666 390.728 234.709 390.72C236.258 390.641 237.762 390.168 239.078 389.346C240.661 388.447 242.045 387.234 243.142 385.783C243.226 385.683 243.301 385.576 243.366 385.463C243.988 384.579 244.349 383.539 244.407 382.46L337.34 328.909L340.54 327.072L344.573 324.755C344.924 324.595 345.224 324.342 345.442 324.024C345.659 323.706 345.785 323.334 345.805 322.95V318.844C345.788 319.236 345.664 319.615 345.447 319.941C345.23 320.268 344.928 320.529 344.573 320.697L333.899 326.832L244.039 378.642C242.358 379.6 240.998 380.814 240.998 381.358V382.316C240.898 382.924 240.606 383.483 240.166 383.914C239.394 384.84 238.462 385.619 237.413 386.214C235.429 387.365 233.828 387.413 233.828 386.358V385.416C233.828 384.856 233.044 384.904 232.036 385.416L230.26 386.454C228.195 387.732 226.595 392.605 226.595 397.445Z" fill="#6E7DD1"/>
<path d="M230.116 397.445V423.47C230.116 423.838 230.116 424.205 230.116 424.556L230.196 425.435C230.188 425.461 230.188 425.489 230.196 425.515C230.516 422.719 233.188 420.227 235.509 418.917C236.802 418.103 238.286 417.641 239.814 417.575C240.988 417.56 242.126 417.975 243.014 418.741L243.319 418.566L243.943 418.198L333.803 366.388L338.972 363.417L340.444 362.554L344.797 360.046C345.083 359.867 345.321 359.62 345.488 359.327C345.656 359.035 345.748 358.705 345.757 358.368V362.474C345.745 362.792 345.658 363.103 345.502 363.381C345.346 363.658 345.126 363.895 344.861 364.072C344.349 364.375 343.805 364.663 343.261 364.998L342.253 365.589L340.524 366.58C340.14 366.82 339.788 367.027 339.452 367.203C339.116 367.379 338.924 367.523 338.7 367.634L337.372 368.417L265.98 409.539L243.19 422.671C241.59 423.63 240.262 423.965 240.166 423.47C240.16 423.412 240.16 423.353 240.166 423.294V422.384C240.166 421.233 238.565 421.233 236.597 422.384C235.867 422.7 235.228 423.193 234.736 423.818C234.244 424.443 233.916 425.18 233.78 425.962V427.081C233.804 427.33 233.768 427.581 233.677 427.814C233.585 428.048 233.439 428.256 233.252 428.423L232.724 428.726L231.604 429.365L230.212 430.18C229.941 430.359 229.618 430.441 229.295 430.412C228.972 430.383 228.669 430.245 228.435 430.02C228.363 429.984 228.302 429.929 228.259 429.86C228.13 429.741 228.022 429.6 227.939 429.445C227.877 429.377 227.823 429.302 227.779 429.221C227.608 428.947 227.473 428.652 227.379 428.343C227.244 428.017 227.137 427.68 227.059 427.336C226.963 426.937 226.899 426.553 226.835 426.138C226.778 425.902 226.746 425.661 226.739 425.419C226.739 425.227 226.739 425.052 226.739 424.828C226.739 424.604 226.739 423.933 226.739 423.47V397.445H230.116Z" fill="#6E7DD1"/>
<g opacity="0.6">
<path opacity="0.6" d="M226.595 397.445H230.116C230.033 394.788 230.616 392.152 231.812 389.777C232.649 390.397 233.666 390.728 234.709 390.72C236.258 390.641 237.762 390.168 239.078 389.346C240.661 388.447 242.045 387.234 243.142 385.783C243.226 385.683 243.301 385.576 243.366 385.463C243.988 384.579 244.349 383.539 244.407 382.46L337.34 328.909L340.54 327.072L344.573 324.755C344.924 324.595 345.224 324.342 345.442 324.024C345.659 323.706 345.785 323.334 345.805 322.95V318.844C345.788 319.236 345.664 319.615 345.447 319.941C345.23 320.268 344.928 320.529 344.573 320.697L333.899 326.832L244.039 378.642C242.358 379.6 240.998 380.814 240.998 381.358V382.316C240.898 382.924 240.606 383.483 240.166 383.914C239.394 384.84 238.462 385.619 237.413 386.214C235.429 387.365 233.828 387.413 233.828 386.358V385.416C233.828 384.856 233.044 384.904 232.036 385.416L230.26 386.454C228.195 387.732 226.595 392.605 226.595 397.445Z" fill="black"/>
<path opacity="0.6" d="M230.116 397.445V423.47C230.116 423.838 230.116 424.205 230.116 424.556L230.196 425.435C230.188 425.461 230.188 425.489 230.196 425.515C230.516 422.719 233.188 420.227 235.509 418.917C236.802 418.103 238.286 417.641 239.814 417.575C240.988 417.56 242.126 417.975 243.015 418.741L243.319 418.566L243.943 418.198L333.803 366.388L338.972 363.417L340.444 362.554L344.797 360.046C345.083 359.867 345.321 359.62 345.488 359.327C345.656 359.035 345.748 358.705 345.758 358.368V362.474C345.745 362.792 345.658 363.103 345.502 363.381C345.346 363.658 345.127 363.895 344.861 364.072C344.349 364.375 343.805 364.663 343.261 364.998L342.253 365.589L340.524 366.58C340.14 366.82 339.788 367.027 339.452 367.203C339.116 367.379 338.924 367.523 338.7 367.634L337.372 368.417L265.98 409.539L243.191 422.671C241.59 423.63 240.262 423.965 240.166 423.47C240.16 423.412 240.16 423.353 240.166 423.294V422.384C240.166 421.233 238.566 421.233 236.597 422.384C235.867 422.7 235.228 423.193 234.736 423.818C234.244 424.443 233.916 425.18 233.78 425.962V427.081C233.804 427.33 233.768 427.581 233.677 427.814C233.585 428.048 233.44 428.256 233.252 428.423L232.724 428.726L231.604 429.365L230.212 430.18C229.942 430.359 229.618 430.441 229.295 430.412C228.972 430.383 228.669 430.245 228.435 430.02C228.363 429.984 228.302 429.929 228.259 429.86C228.13 429.741 228.022 429.6 227.939 429.445C227.877 429.377 227.823 429.302 227.779 429.221C227.608 428.947 227.473 428.652 227.379 428.343C227.244 428.017 227.137 427.68 227.059 427.336C226.963 426.937 226.899 426.553 226.835 426.138C226.778 425.902 226.746 425.661 226.739 425.419C226.739 425.227 226.739 425.052 226.739 424.828C226.739 424.604 226.739 423.933 226.739 423.47V397.445H230.116Z" fill="black"/>
</g>
<path d="M70.8159 298.874L220.257 385.016L333.211 319.914C333.58 319.791 333.901 319.555 334.128 319.24C334.355 318.924 334.478 318.546 334.478 318.157C334.478 317.768 334.355 317.39 334.128 317.074C333.901 316.759 333.58 316.523 333.211 316.4L185.338 231.152L86.1153 288.378L83.6668 289.8C83.3355 290.157 83.1279 290.61 83.0747 291.094V292.052C83.0747 293.107 81.4743 294.88 79.5059 296.014C79.406 296.08 79.2985 296.134 79.1858 296.174L75.8891 294.273L74.2887 295.168L74.0646 295.28L72.9124 295.951C71.9324 296.69 71.2012 297.71 70.8159 298.874Z" fill="#263238"/>
<path d="M324.873 320.554L320.376 318.157L324.473 317.183C324.866 317.642 325.114 318.207 325.186 318.807C325.257 319.408 325.148 320.015 324.873 320.554Z" fill="#E0E0E0"/>
<g style="mix-blend-mode:multiply" opacity="0.5">
<path d="M324.873 320.554L320.376 318.157L324.473 317.183C324.866 317.642 325.114 318.207 325.186 318.807C325.257 319.408 325.148 320.015 324.873 320.554Z" fill="#E0E0E0"/>
</g>
<path d="M205.694 380.463C207.11 381.18 208.675 381.554 210.263 381.554C211.851 381.554 213.416 381.18 214.832 380.463L317.479 321.352L163.845 224.395L160.244 222.318L57.613 289.8C55.1004 291.254 55.1004 293.618 57.613 295.072L205.694 380.463Z" fill="#6E7DD1"/>
<path d="M244.231 260.276L321.784 312.741L280.031 280.789L303.204 267.434L330.154 283.01V310.792C330.154 313.157 327.513 316.496 326.553 315.952C324.777 316.381 323.051 316.991 321.4 317.774C318.708 319.302 316.21 321.147 313.958 323.269L231.716 267.466L244.231 260.276Z" fill="#6E7DD1"/>
<path opacity="0.2" d="M244.231 260.276L321.784 312.741L280.031 280.789L303.204 267.434L330.154 283.01V310.792C330.154 313.157 327.513 316.496 326.553 315.952C324.777 316.381 323.051 316.991 321.4 317.774C318.708 319.302 316.21 321.147 313.958 323.269L231.716 267.466L244.231 260.276Z" fill="black"/>
<path d="M210.255 345.78V377.859C211.319 377.883 212.371 377.635 213.312 377.14L224.514 370.654L310.294 321.225V288.091L210.255 345.78Z" fill="white"/>
<path d="M60.1576 262.241V288.873C60.2163 289.928 60.522 290.955 61.0501 291.87C61.5781 292.786 62.3139 293.565 63.1983 294.145L196.028 370.67L207.23 377.156C208.167 377.649 209.213 377.897 210.271 377.875V348.288L60.1576 262.241Z" fill="#F0F0F0"/>
<path d="M310.342 321.225C310.42 320.013 310.867 318.854 311.622 317.902C312.715 316.446 314.099 315.233 315.687 314.339C317.008 313.517 318.517 313.044 320.072 312.965C321.08 312.863 322.093 313.099 322.952 313.636V280.822L310.358 288.091L310.342 321.225Z" fill="#455A64"/>
<path d="M315.367 314.531C313.915 315.407 312.644 316.551 311.622 317.901C310.867 318.854 310.42 320.013 310.342 321.224V289.273H315.351L315.367 314.531Z" fill="#F5F5F5"/>
<path d="M163.829 195.398L317.463 283.985V286.03C317.463 287.18 319.063 287.627 321.032 286.461C323 285.295 324.633 283.889 324.633 281.924L324.825 279.975L168.262 189.743L167.622 189.375C167.461 189.67 167.373 189.999 167.366 190.334V191.277C167.382 192.411 165.797 194.248 163.829 195.398Z" fill="#6E7DD1"/>
<path opacity="0.2" d="M163.829 195.398L317.463 283.985V286.03C317.463 287.18 319.063 287.627 321.032 286.461C323 285.295 324.633 283.889 324.633 281.924L324.825 279.975L168.262 189.743L167.622 189.375C167.461 189.67 167.373 189.999 167.366 190.334V191.277C167.382 192.411 165.797 194.248 163.829 195.398Z" fill="black"/>
<path d="M214.832 343.144L315.271 285.295C316.551 284.624 317.719 284.081 318.199 284.336L317.543 283.985L163.909 195.399L162.1 194.376C161.296 194.138 160.449 194.079 159.62 194.203C158.79 194.327 157.998 194.632 157.299 195.095L57.613 252.496C55.1004 253.95 55.1004 256.331 57.613 257.768L205.726 343.144C207.138 343.855 208.697 344.226 210.279 344.226C211.861 344.226 213.42 343.855 214.832 343.144Z" fill="#6E7DD1"/>
<path d="M167.638 189.376L168.278 189.743L324.873 279.975C324.952 279.808 325.067 279.661 325.209 279.543L325.737 279.256L326.857 278.601L328.249 277.786C328.521 277.61 328.843 277.529 329.165 277.558C329.488 277.587 329.791 277.724 330.026 277.946C330.092 277.99 330.151 278.044 330.202 278.106C330.387 278.304 330.548 278.524 330.682 278.761C330.847 279.038 330.981 279.333 331.082 279.639C331.208 279.974 331.315 280.315 331.402 280.662C331.482 281.045 331.562 281.429 331.626 281.844C331.675 282.086 331.707 282.332 331.722 282.579V283.154C331.722 283.585 331.722 284.049 331.722 284.528V280.135C331.562 278.688 331.064 277.298 330.269 276.078C329.475 274.857 328.405 273.839 327.145 273.105L179.032 187.73C177.811 187.012 176.44 186.587 175.027 186.487C173.614 186.388 172.196 186.616 170.886 187.155L169.014 188.241L168.23 188.705C167.972 188.867 167.767 189.1 167.638 189.376Z" fill="#6E7DD1"/>
<path d="M214.832 380.463L221.026 376.885L313.958 323.317C314.04 322.106 314.486 320.948 315.239 319.994C316.337 318.544 317.72 317.331 319.304 316.432C320.623 315.622 322.125 315.155 323.673 315.074C324.717 315.052 325.738 315.385 326.569 316.016C327.763 313.635 328.346 310.994 328.266 308.332H331.786C331.786 313.125 330.186 318.045 328.218 319.18L326.441 320.218C325.433 320.793 324.649 320.825 324.649 320.218V319.276C324.649 318.221 323.048 318.269 321.048 319.403C319.048 320.538 317.479 322.327 317.479 323.381V324.324C317.479 324.867 316.119 326.081 314.439 327.056L224.562 378.866L214.832 384.473C213.424 385.2 211.857 385.568 210.271 385.543V381.486C211.854 381.54 213.424 381.187 214.832 380.463Z" fill="#6E7DD1"/>
<path opacity="0.4" d="M214.832 380.463L221.026 376.885L313.958 323.317C314.04 322.106 314.486 320.948 315.239 319.994C316.337 318.544 317.72 317.331 319.304 316.432C320.623 315.622 322.125 315.155 323.673 315.074C324.717 315.052 325.738 315.385 326.569 316.016C327.763 313.635 328.346 310.994 328.266 308.332H331.786C331.786 313.125 330.186 318.045 328.218 319.18L326.441 320.218C325.433 320.793 324.649 320.825 324.649 320.218V319.276C324.649 318.221 323.048 318.269 321.048 319.403C319.048 320.538 317.479 322.327 317.479 323.381V324.324C317.479 324.867 316.119 326.081 314.439 327.056L224.562 378.866L214.832 384.473C213.424 385.2 211.857 385.568 210.271 385.543V381.486C211.854 381.54 213.424 381.187 214.832 380.463Z" fill="black"/>
<path d="M214.8 343.159L220.994 339.581L292.386 298.459L315.271 285.295C316.871 284.352 318.215 284.017 318.311 284.512V285.55C318.311 286.685 319.912 286.685 321.88 285.55C322.612 285.232 323.253 284.737 323.744 284.109C324.236 283.482 324.564 282.741 324.697 281.956V280.838C324.673 280.588 324.709 280.337 324.801 280.104C324.892 279.871 325.038 279.662 325.225 279.496L325.753 279.208L326.873 278.553L328.266 277.738C328.537 277.562 328.859 277.482 329.181 277.511C329.504 277.54 329.807 277.676 330.042 277.898C330.108 277.942 330.167 277.996 330.218 278.058C330.342 278.188 330.45 278.333 330.538 278.489C330.599 278.558 330.652 278.633 330.698 278.713C330.863 278.99 330.997 279.285 331.098 279.591C331.224 279.926 331.331 280.267 331.418 280.614C331.498 280.997 331.578 281.381 331.642 281.796C331.691 282.039 331.723 282.284 331.738 282.531V283.106C331.738 283.537 331.738 284.001 331.738 284.48V308.252H328.218V284.608C328.218 284.24 328.218 283.857 328.218 283.505L328.138 282.627C327.817 285.423 325.145 287.915 322.808 289.225C321.522 290.041 320.042 290.504 318.519 290.567C317.345 290.582 316.207 290.167 315.319 289.401L315.015 289.576L314.39 289.944L224.514 341.754L214.784 347.361C213.393 348.071 211.849 348.427 210.287 348.4V344.342C211.867 344.331 213.419 343.924 214.8 343.159Z" fill="#6E7DD1"/>
<path opacity="0.4" d="M214.8 343.159L220.994 339.581L292.386 298.459L315.271 285.295C316.871 284.352 318.215 284.017 318.311 284.512V285.55C318.311 286.685 319.912 286.685 321.88 285.55C322.612 285.232 323.253 284.737 323.744 284.109C324.236 283.482 324.564 282.741 324.697 281.956V280.838C324.673 280.588 324.709 280.337 324.801 280.104C324.892 279.871 325.038 279.662 325.225 279.496L325.753 279.208L326.873 278.553L328.266 277.738C328.537 277.562 328.859 277.482 329.181 277.511C329.504 277.54 329.807 277.676 330.042 277.898C330.108 277.942 330.167 277.996 330.218 278.058C330.342 278.188 330.45 278.333 330.538 278.489C330.599 278.558 330.652 278.633 330.698 278.713C330.863 278.99 330.997 279.285 331.098 279.591C331.224 279.926 331.331 280.267 331.418 280.614C331.498 280.997 331.578 281.381 331.642 281.796C331.691 282.039 331.723 282.284 331.738 282.531V283.106C331.738 283.537 331.738 284.001 331.738 284.48V308.252H328.218V284.608C328.218 284.24 328.218 283.857 328.218 283.505L328.138 282.627C327.817 285.423 325.145 287.915 322.808 289.225C321.522 290.041 320.042 290.504 318.519 290.567C317.345 290.582 316.207 290.167 315.319 289.401L315.015 289.576L314.39 289.944L224.514 341.754L214.784 347.361C213.393 348.071 211.849 348.427 210.287 348.4V344.342C211.867 344.331 213.419 343.924 214.8 343.159Z" fill="black"/>
<path d="M55.7086 255.084V259.206C55.7572 259.76 55.9495 260.291 56.2667 260.748C56.5838 261.204 57.0148 261.571 57.517 261.81L195.916 341.562L205.63 347.169C207.034 347.894 208.595 348.262 210.175 348.24V344.182C208.587 344.217 207.016 343.843 205.614 343.096L199.437 339.533L57.613 257.768C57.0753 257.544 56.6115 257.174 56.2748 256.699C55.938 256.225 55.7418 255.665 55.7086 255.084Z" fill="#6E7DD1"/>
<path opacity="0.2" d="M55.7086 255.084V259.206C55.7572 259.76 55.9495 260.291 56.2667 260.748C56.5838 261.204 57.0148 261.571 57.517 261.81L195.916 341.562L205.63 347.169C207.034 347.894 208.595 348.262 210.175 348.24V344.182C208.587 344.217 207.016 343.843 205.614 343.096L199.437 339.533L57.613 257.768C57.0753 257.544 56.6115 257.174 56.2748 256.699C55.938 256.225 55.7418 255.665 55.7086 255.084Z" fill="black"/>
<path d="M55.7086 292.372V296.494C55.7572 297.047 55.9495 297.579 56.2667 298.035C56.5838 298.492 57.0148 298.858 57.517 299.098L195.98 378.866L205.694 384.473C207.098 385.198 208.659 385.565 210.239 385.543V381.486C208.651 381.521 207.08 381.146 205.678 380.399L199.501 376.837L57.613 295.056C57.0753 294.832 56.6115 294.462 56.2748 293.987C55.938 293.512 55.7418 292.953 55.7086 292.372Z" fill="#6E7DD1"/>
<path opacity="0.2" d="M55.7086 292.372V296.494C55.7572 297.047 55.9495 297.579 56.2667 298.035C56.5838 298.492 57.0148 298.858 57.517 299.098L195.98 378.866L205.694 384.473C207.098 385.198 208.659 385.565 210.239 385.543V381.486C208.651 381.521 207.08 381.146 205.678 380.399L199.501 376.837L57.613 295.056C57.0753 294.832 56.6115 294.462 56.2748 293.987C55.938 293.512 55.7418 292.953 55.7086 292.372Z" fill="black"/>
<path d="M119.627 147.423L104.936 173.56L126.348 184.934L141.936 161.769L119.627 147.423Z" fill="#FFA8A7"/>
<path d="M171.751 88.5517C163.589 87.1618 151.234 86.7944 143.2 100.55C135.166 114.305 117.85 148.254 117.85 148.254C117.85 148.254 127.965 161.322 142.608 163.702L166.533 125.808L171.751 88.5517Z" fill="#6E7DD1"/>
<path d="M152.466 408.645H134.19V439.877H152.466V408.645Z" fill="#FFA8A7"/>
<path d="M99.5584 401.04L81.2823 401.663L80.3701 368.609L98.6302 367.986L99.5584 401.04Z" fill="#FFA8A7"/>
<path d="M134.19 430.867V428.263C132.446 429.014 128.381 444.494 121.131 451.092C115.37 456.349 107.512 462.403 105.512 468.251C103.431 474.337 116.458 477.708 121.835 476.75C128.093 475.647 138.943 471.254 141.664 467.164C144.384 463.074 145.665 457.083 147.873 454.096C150.082 451.108 155.187 447.706 156.387 444.303C157.043 442.402 156.259 438.248 155.347 434.717C154.499 431.522 153.57 427.943 152.466 428.247V430.228C151.138 431.698 147.473 433.152 143.328 433.311C140.656 433.439 134.174 432.912 134.19 430.867Z" fill="#3D4469"/>
<path d="M81.0903 396.039C80.146 396.039 79.3779 397.413 77.2814 399.666C74.154 402.82 70.5188 405.429 66.527 407.382C59.6775 410.817 46.4105 416.073 40.3612 418.805C36.6003 420.499 36.7764 425.036 40.6652 427.624C44.5541 430.212 53.9322 432.065 65.2147 429.541C71.3441 428.167 79.3459 422.512 84.419 422.815C89.4921 423.119 98.9503 423.055 102.679 420.483C106.408 417.91 104.92 412.495 103.863 407.702C102.711 402.558 101.063 394.682 99.3504 395.033V396.631C97.1579 399.954 85.9714 401.311 81.1383 398.867L81.0903 396.039Z" fill="#3D4469"/>
<path d="M226.083 218.707C230.084 246.905 224.69 252.257 197.852 279.32C183.449 293.842 160.164 315.138 160.164 315.138C160.164 315.138 160.5 324.148 160.676 344.342C160.852 362.123 153.41 419.988 153.41 419.988C153.41 419.988 141.28 425.084 132.958 419.796C132.958 419.796 129.197 376.741 127.165 354.295C124.412 323.941 122.972 308.636 124.524 302.102C125.9 296.334 153.218 261.89 159.524 252.241L101.463 285.918C102.588 294.451 103.155 303.048 103.159 311.655C102.519 335.795 99.5423 384.01 99.5423 384.01C99.5423 384.01 86.2594 389.937 79.6659 384.825C79.6659 384.825 62.9421 279.384 62.9421 270.725C62.9421 257.577 120.139 218.324 130.973 209.186C137.151 203.978 144.032 198.338 144.032 198.338L226.083 218.707Z" fill="#455A64"/>
<path d="M159.524 252.257C153.417 247.321 148.82 240.772 146.257 233.357C146.577 238.195 147.267 243.002 148.321 247.735C149.922 253.998 101.463 285.918 101.463 285.918L159.524 252.257Z" fill="#37474F"/>
<path d="M191.793 38.1236C195.062 24.1984 186.404 10.2642 172.455 7.0007C158.506 3.73715 144.547 12.3801 141.278 26.3052C138.009 40.2304 146.667 54.1645 160.616 57.4281C174.565 60.6916 188.524 52.0487 191.793 38.1236Z" fill="#263238"/>
<path d="M221.042 104.24C221.042 104.24 227.443 109.48 227.443 126.031V161.769L226.531 221.871C213.728 235.786 156.115 230.514 141.856 200.159C141.856 200.159 141.968 136.719 141.968 122.501C141.968 108.282 149.97 89.8299 171.734 88.5518L199.933 95.1019L221.042 104.24Z" fill="#263238"/>
<path d="M211.375 50.625C211.375 50.625 207.167 70.3392 205.486 73.5823C204.365 75.5816 202.513 77.0702 200.317 77.7361L200.605 63.869L211.375 50.625Z" fill="#263238"/>
<path d="M206.094 22.3797C207.555 22.2158 209.035 22.3851 210.421 22.8749C211.807 23.3647 213.064 24.1623 214.096 25.2074C217.553 28.7381 215.616 39.7934 211.311 50.6251L203.39 51.5357L206.094 22.3797Z" fill="#263238"/>
<path d="M201.085 51.5356C202.685 52.4782 204.942 49.4428 206.894 47.3979C208.847 45.353 215.248 42.6051 218.433 49.2671C221.618 55.929 215.616 65.1311 210.591 66.7127C201.917 69.4286 200.605 63.869 200.605 63.869L199.949 95.1019C192.475 103.441 166.917 101.492 171.735 94.2711V84.6856C171.735 84.6856 163.877 85.8838 160.052 85.2927C153.651 84.3022 149.65 79.2858 147.713 72.3842C144.608 61.3129 143.424 52.3824 146.113 30.6072C149.009 6.73928 176.808 6.49964 191.819 15.9254C206.83 25.3512 201.085 51.5356 201.085 51.5356Z" fill="#FFA8A7"/>
<path d="M178.984 56.9994H177.64C175.293 56.9994 173.042 56.0686 171.382 54.4118C169.722 52.755 168.79 50.5078 168.79 48.1647C168.79 45.8216 169.722 43.5745 171.382 41.9177C173.042 40.2609 175.293 39.3301 177.64 39.3301H179C181.347 39.3301 183.598 40.2609 185.258 41.9177C186.918 43.5745 187.85 45.8216 187.85 48.1647C187.85 50.5078 186.918 52.755 185.258 54.4118C183.598 56.0686 181.347 56.9994 179 56.9994H178.984ZM177.64 40.8158C175.687 40.8158 173.815 41.5901 172.434 42.9683C171.054 44.3465 170.278 46.2157 170.278 48.1647C170.278 50.1138 171.054 51.983 172.434 53.3612C173.815 54.7394 175.687 55.5136 177.64 55.5136H179C180.953 55.5136 182.825 54.7394 184.206 53.3612C185.586 51.983 186.362 50.1138 186.362 48.1647C186.362 46.2157 185.586 44.3465 184.206 42.9683C182.825 41.5901 180.953 40.8158 179 40.8158H177.64Z" fill="#263238"/>
<path d="M152.034 56.9994H150.674C148.327 56.9994 146.076 56.0686 144.416 54.4118C142.756 52.755 141.824 50.5078 141.824 48.1647C141.824 45.8216 142.756 43.5745 144.416 41.9177C146.076 40.2609 148.327 39.3301 150.674 39.3301H152.034C154.381 39.3301 156.632 40.2609 158.292 41.9177C159.952 43.5745 160.884 45.8216 160.884 48.1647C160.884 50.5078 159.952 52.755 158.292 54.4118C156.632 56.0686 154.381 56.9994 152.034 56.9994ZM150.674 40.8158C148.721 40.8158 146.849 41.5901 145.468 42.9683C144.088 44.3465 143.312 46.2157 143.312 48.1647C143.312 50.1138 144.088 51.983 145.468 53.3612C146.849 54.7394 148.721 55.5136 150.674 55.5136H152.034C153.986 55.5136 155.859 54.7394 157.239 53.3612C158.62 51.983 159.396 50.1138 159.396 48.1647C159.396 46.2157 158.62 44.3465 157.239 42.9683C155.859 41.5901 153.986 40.8158 152.034 40.8158H150.674Z" fill="#263238"/>
<path d="M168.886 46.4233C168.346 45.6912 167.642 45.0948 166.831 44.6816C166.02 44.2684 165.123 44.0497 164.213 44.0429C163.454 43.9667 162.689 44.0718 161.979 44.3496C161.269 44.6274 160.636 45.0699 160.132 45.6405L158.948 44.7458C159.595 43.981 160.422 43.387 161.354 43.0165C162.286 42.6459 163.296 42.5101 164.293 42.621C165.447 42.6324 166.581 42.918 167.603 43.4542C168.624 43.9904 169.503 44.7618 170.166 45.7044L168.886 46.4233Z" fill="#263238"/>
<path d="M205.838 46.3594H187.018V47.8452H205.838V46.3594Z" fill="#263238"/>
<path d="M201.085 54.2036C201.885 54.2036 204.91 49.1872 206.894 47.3979C209.631 44.9057 206.094 22.3797 206.094 22.3797C206.094 22.3797 208.735 16.7721 203.454 10.9889C199.709 6.86709 193.435 6.40378 182.729 4.72631C177.112 3.84763 168.598 2.26603 162.981 1.2276C156.291 -0.0185208 150.738 -1.32854 146.017 2.82519C144.163 4.42891 142.853 6.56617 142.266 8.94334C141.678 11.3205 141.842 13.821 142.736 16.1011C144.091 18.9449 146.502 21.1507 149.458 22.2519C149.458 22.2519 152.37 24.8399 162.532 26.0701C172.695 27.3002 188.522 25.8464 190.683 25.5429C193.627 25.1435 194.252 27.9872 195.852 35.7834C197.244 42.5732 198.444 54.1557 201.085 54.2036Z" fill="#263238"/>
<path d="M206.078 24.2009L215.68 19.0407C215.373 18.3964 214.938 17.8209 214.402 17.3488C213.865 16.8768 213.239 16.518 212.56 16.2941C211.881 16.0702 211.164 15.9858 210.451 16.046C209.739 16.1062 209.046 16.3097 208.415 16.6443C207.131 17.3667 206.174 18.5526 205.739 19.9581C205.304 21.3636 205.426 22.882 206.078 24.2009Z" fill="#263238"/>
<path d="M171.751 84.7654C171.751 84.7654 185.994 81.9057 190.955 79.2697C193.882 77.7436 196.28 75.3718 197.836 72.464C197.083 75.3606 195.755 78.0769 193.931 80.4519C190.283 85.1009 171.734 88.5197 171.734 88.5197L171.751 84.7654Z" fill="#F28F8F"/>
<path d="M175.175 47.9889C175.197 48.5499 175.384 49.092 175.713 49.5477C176.041 50.0034 176.497 50.3524 177.023 50.5513C177.549 50.7502 178.122 50.7901 178.67 50.6662C179.219 50.5423 179.719 50.2599 180.107 49.8543C180.496 49.4487 180.757 48.9378 180.857 48.3853C180.957 47.8328 180.892 47.2632 180.669 46.7474C180.447 46.2317 180.078 45.7926 179.607 45.485C179.137 45.1773 178.586 45.0147 178.024 45.0174C177.641 45.0257 177.264 45.1092 176.914 45.263C176.564 45.4169 176.247 45.6381 175.983 45.914C175.718 46.19 175.511 46.5153 175.372 46.8713C175.234 47.2273 175.167 47.6071 175.175 47.9889Z" fill="#263238"/>
<path d="M179.752 36.1988L185.866 39.5537C186.278 38.7228 186.36 37.7671 186.096 36.8783C185.832 35.9894 185.241 35.2331 184.441 34.761C184.041 34.5398 183.6 34.4015 183.144 34.3543C182.689 34.3071 182.229 34.3519 181.791 34.4861C181.353 34.6203 180.947 34.8411 180.597 35.1353C180.247 35.4296 179.96 35.7913 179.752 36.1988Z" fill="#263238"/>
<path d="M173.047 67.6553L166.533 70.0996C166.673 70.5362 166.901 70.94 167.201 71.2867C167.501 71.6334 167.869 71.916 168.281 72.1174C168.694 72.3189 169.143 72.435 169.602 72.4589C170.06 72.4828 170.519 72.4139 170.95 72.2564C171.828 71.9093 172.537 71.236 172.928 70.378C173.319 69.5199 173.362 68.544 173.047 67.6553Z" fill="#F28F8F"/>
<path d="M148.993 38.691L154.563 34.4254C154.303 34.0531 153.971 33.737 153.586 33.4964C153.201 33.2557 152.772 33.0955 152.323 33.0253C151.874 32.9551 151.416 32.9765 150.976 33.0881C150.535 33.1996 150.122 33.3992 149.762 33.6745C149.012 34.2516 148.514 35.0949 148.371 36.0291C148.228 36.9633 148.451 37.9166 148.993 38.691Z" fill="#263238"/>
<path d="M151.442 47.1742C151.464 47.7352 151.651 48.2773 151.98 48.733C152.308 49.1887 152.764 49.5377 153.29 49.7366C153.816 49.9355 154.388 49.9755 154.937 49.8515C155.485 49.7276 155.985 49.4452 156.374 49.0396C156.763 48.634 157.024 48.1231 157.124 47.5706C157.224 47.0181 157.158 46.4485 156.936 45.9327C156.714 45.417 156.345 44.9779 155.874 44.6703C155.404 44.3626 154.853 44.2 154.291 44.2027C153.908 44.211 153.531 44.2945 153.181 44.4483C152.831 44.6022 152.514 44.8234 152.25 45.0993C151.985 45.3753 151.778 45.7006 151.639 46.0566C151.501 46.4126 151.434 46.7924 151.442 47.1742Z" fill="#263238"/>
<path d="M165.541 44.8896L165.221 62.1596L154.995 59.907L165.541 44.8896Z" fill="#F28F8F"/>
<path d="M148.065 188.465V190.063C148.064 190.879 147.848 191.682 147.438 192.388C147.028 193.095 146.438 193.682 145.729 194.089L101.287 219.65C100.579 220.058 99.7758 220.273 98.9583 220.273C98.1408 220.273 97.3377 220.058 96.6298 219.65L15.0915 172.665C14.3821 172.258 13.7926 171.671 13.3824 170.965C12.9723 170.258 12.7559 169.456 12.755 168.639V167.505L98.9503 217.174L148.065 188.465Z" fill="#6E7DD1"/>
<path opacity="0.6" d="M148.065 188.465V190.063C148.064 190.879 147.848 191.682 147.438 192.388C147.028 193.095 146.438 193.682 145.729 194.089L101.287 219.65C100.579 220.058 99.7758 220.273 98.9583 220.273C98.1408 220.273 97.3377 220.058 96.6298 219.65L15.0915 172.665C14.3821 172.258 13.7926 171.671 13.3824 170.965C12.9723 170.258 12.7559 169.456 12.755 168.639V167.505L98.9503 217.174L148.065 188.465Z" fill="black"/>
<path d="M12.8029 167.521L61.1497 139.659C61.5731 139.415 62.0533 139.286 62.5421 139.286C63.0309 139.286 63.511 139.415 63.9344 139.659L147.793 188.002C147.886 188.057 147.963 188.135 148.016 188.229C148.07 188.323 148.098 188.429 148.098 188.537C148.098 188.645 148.07 188.751 148.016 188.845C147.963 188.938 147.886 189.017 147.793 189.072L98.9982 217.19L12.8029 167.521Z" fill="#6E7DD1"/>
<path opacity="0.5" d="M12.8029 167.521L61.1497 139.659C61.5731 139.415 62.0533 139.286 62.5421 139.286C63.0309 139.286 63.511 139.415 63.9344 139.659L147.793 188.002C147.886 188.057 147.963 188.135 148.016 188.229C148.07 188.323 148.098 188.429 148.098 188.537C148.098 188.645 148.07 188.751 148.016 188.845C147.963 188.938 147.886 189.017 147.793 189.072L98.9982 217.19L12.8029 167.521Z" fill="black"/>
<path d="M99.3983 213.1L125.468 198.082L49.2271 154.149L23.0132 169.086L99.3983 213.1Z" fill="#263238"/>
<path d="M112.217 171.339L111.737 171.61L98.9502 178.975L76.2252 165.875L75.761 165.603L89.012 157.967L112.217 171.339Z" fill="#263238"/>
<path d="M111.737 171.61L98.9502 178.975L76.2251 165.875L89.0119 158.51L111.737 171.61Z" fill="#263238"/>
<path opacity="0.7" d="M98.9503 217.19V220.289C98.1354 220.288 97.3351 220.073 96.6298 219.666L15.0915 172.681C14.3821 172.274 13.7926 171.687 13.3824 170.981C12.9723 170.274 12.7559 169.472 12.755 168.655V167.521L98.9503 217.19Z" fill="black"/>
<path d="M97.622 217.877C96.8466 218.185 96.0109 218.312 95.1788 218.248C94.3466 218.184 93.5401 217.932 92.8209 217.509L11.6507 170.732C10.9456 170.328 10.3389 169.773 9.87401 169.107C9.40915 168.442 9.09774 167.682 8.96213 166.881L0.0801419 113.969C0.029684 113.674 0.00292166 113.375 0.000119129 113.075C-0.00951994 111.605 0.566134 110.191 1.60048 109.145L85.9554 157.775C86.4906 158.069 86.9536 158.478 87.3106 158.973C87.6677 159.467 87.91 160.035 88.0198 160.635L97.622 217.877Z" fill="#6E7DD1"/>
<path opacity="0.5" d="M97.622 217.877C96.8466 218.185 96.0109 218.312 95.1788 218.248C94.3466 218.184 93.5401 217.932 92.8209 217.509L11.6507 170.732C10.9456 170.328 10.3389 169.773 9.87401 169.107C9.40915 168.442 9.09774 167.682 8.96213 166.881L0.0801419 113.969C0.029684 113.674 0.00292166 113.375 0.000119129 113.075C-0.00951994 111.605 0.566134 110.191 1.60048 109.145L85.9554 157.775C86.4906 158.069 86.9536 158.478 87.3106 158.973C87.6677 159.467 87.91 160.035 88.0198 160.635L97.622 217.877Z" fill="black"/>
<path d="M98.9502 217.19L98.4061 217.509C98.1598 217.651 97.903 217.774 97.6379 217.877L88.0358 160.635C87.9349 160.042 87.7049 159.479 87.362 158.985C87.0191 158.491 86.5717 158.078 86.0514 157.775L1.69647 109.145C2.03154 108.815 2.40811 108.531 2.81672 108.298L87.3476 157.008C87.868 157.311 88.3154 157.724 88.6583 158.218C89.0012 158.712 89.2312 159.276 89.3321 159.868L98.9502 217.19Z" fill="#E0E0E0"/>
<path d="M51.9157 169.038C51.3236 165.508 47.6588 160.795 43.7379 158.542C39.817 156.29 37.1124 157.312 37.7206 160.859C38.3287 164.405 41.9775 169.102 45.8984 171.371C49.8192 173.639 52.5239 172.585 51.9157 169.038Z" fill="#6E7DD1"/>
<path d="M68.5435 203.482C68.3742 201.19 67.9282 198.926 67.2152 196.74C65.9669 192.826 62.2541 177.745 53.7722 175.477C52.7635 175.174 51.6929 175.141 50.6675 175.381C48.3149 176.02 47.2427 178.464 46.7786 180.653C46.3465 183.887 46.3465 187.164 46.7786 190.398C45.4746 188.909 43.9467 187.632 42.2496 186.612C40.7448 185.481 38.9305 184.834 37.0484 184.759C36.7866 184.746 36.5256 184.797 36.2884 184.909C36.0512 185.02 35.8451 185.188 35.6881 185.398C35.384 185.957 35.6881 186.66 36.1682 187.155C37.0164 188.177 38.0566 189.04 38.9048 190.063C39.5696 190.954 40.1841 191.882 40.7452 192.842C41.8175 194.568 43.0177 196.197 44.218 197.843C46.524 201.262 49.4172 204.247 52.7639 206.661C56.6133 209.262 60.9808 211.001 65.5668 211.758C71.7602 212.525 77.7775 212.429 81.6824 211.071L68.5435 203.482Z" fill="#FFA8A7"/>
<path d="M219.345 104.703C213.632 101.764 205.278 113.41 207.935 125.584C210.591 137.758 223.682 180.557 223.682 180.557C223.682 180.557 164.549 185.829 159.524 186.452C156.019 186.867 152.098 185.094 148.849 184.024C144.432 182.554 139.967 181.531 135.614 179.934C134.857 179.587 134.032 179.412 133.198 179.423C132.779 179.441 132.378 179.596 132.057 179.865C131.736 180.133 131.513 180.5 131.422 180.908C131.4 181.408 131.529 181.903 131.79 182.33C133.186 185.173 135.284 187.614 137.887 189.423C139.148 190.167 140.347 191.011 141.472 191.948C142.16 192.635 143.68 194.536 143.072 195.574L119.579 209.074C119.579 209.074 124.988 213.771 144.577 208.291C151.638 206.447 158.528 204.004 165.173 200.99C165.173 200.99 234.853 203.882 247.448 200.079C251.897 198.721 253.497 195.574 250.488 181.26C247.047 164.677 237.173 134.435 234.933 126.447C230.02 109.145 228.851 109.544 219.345 104.703Z" fill="#FFA8A7"/>
<path d="M216.4 102.227C216.4 102.227 225.843 104.879 229.908 110.215C233.972 115.551 249.656 167.169 249.656 167.169C245.556 170.583 240.762 173.065 235.605 174.445C230.449 175.824 225.053 176.067 219.793 175.157C219.793 175.157 207.182 139.451 205.838 129.913C203.454 115.136 210.687 103.505 216.4 102.227Z" fill="#6E7DD1"/>
<path d="M165.445 136.863C164.677 132.869 167.173 130.712 171.03 132.07C173.071 132.907 174.888 134.21 176.333 135.875C177.778 137.54 178.812 139.52 179.352 141.656C180.12 145.697 166.197 140.825 165.445 136.863Z" fill="#6E7DD1"/>
<path d="M191.835 149.308L180.488 142.103C181.065 145.17 176.92 144.739 173.191 143.445C169.462 142.151 164.901 139.531 164.309 136.463L154.419 136.336C153.506 136.336 153.49 137.518 154.419 138.492C156.867 141.224 162.564 146.065 174.535 150.235C186.506 154.404 191.099 153.11 192.827 151.832C193.387 151.353 192.875 149.963 191.835 149.308Z" fill="#6E7DD1"/>
</svg>
