<svg width="418" height="391" viewBox="0 0 418 391" fill="none" xmlns="http://www.w3.org/2000/svg">
<path fill-rule="evenodd" clip-rule="evenodd" d="M248.027 10.2541C247.733 10.6504 247.531 10.8806 247.377 11.137C243.262 18.0288 239.164 24.9292 235.025 31.8093C234.598 32.5174 234.65 33.0521 235.062 33.7384C239.17 40.5762 243.241 47.4329 247.33 54.2809C247.497 54.5621 247.735 54.8084 247.988 55.1333C248.189 54.8754 248.333 54.7253 248.436 54.5549C252.602 47.5743 256.752 40.5864 260.945 33.6189C261.388 32.8846 261.221 32.3498 260.823 31.6913C258.002 27.0026 255.213 22.2978 252.414 17.599C251 15.2298 249.583 12.8636 248.027 10.2541V10.2541ZM247.958 57.4092C247.584 56.8337 247.322 56.4577 247.093 56.0701C242.67 48.6554 238.26 41.2362 233.822 33.8287C233.398 33.1221 233.263 32.5582 233.737 31.7728C238.326 24.1584 242.861 16.5149 247.415 8.88157C247.544 8.66739 247.703 8.46631 247.932 8.13702C248.221 8.52604 248.478 8.81601 248.67 9.13801C253.146 16.6388 257.607 24.1483 262.092 31.6432C262.51 32.3396 262.694 32.8977 262.208 33.7005C257.614 41.3149 253.08 48.957 248.528 56.5903C248.399 56.806 248.239 57.0027 247.958 57.4092" fill="#181818"/>
<path fill-rule="evenodd" clip-rule="evenodd" d="M403.449 55.2382C403.823 54.6597 404.084 54.2838 404.316 53.8933C408.271 47.2639 412.198 40.6184 416.2 34.0123C416.781 33.055 416.723 32.344 416.163 31.4173C412.169 24.8068 408.236 18.1657 404.279 11.5348C404.046 11.1487 403.78 10.7771 403.451 10.2803C403.123 10.7728 402.855 11.1428 402.624 11.529C398.643 18.2036 394.69 24.8928 390.662 31.5426C390.106 32.4635 390.176 33.1293 390.704 34.0021C394.689 40.6184 398.625 47.2566 402.579 53.8875C402.814 54.278 403.073 54.6539 403.449 55.2382V55.2382ZM403.481 8.09474C403.828 8.64404 404.084 9.02433 404.316 9.41481C408.711 16.7859 413.087 24.1657 417.523 31.5178C418.063 32.4139 418.062 33.0827 417.524 33.9744C413.092 41.328 408.716 48.7063 404.319 56.0774C404.088 56.4665 403.826 56.8395 403.489 57.3582C403.178 56.9385 402.918 56.6471 402.724 56.3222C398.248 48.82 393.785 41.3134 389.303 33.8141C388.916 33.1716 388.705 32.6398 389.154 31.8908C393.788 24.1847 398.378 16.4552 402.984 8.73294C403.088 8.56392 403.231 8.41237 403.481 8.09474" fill="#181818"/>
<path fill-rule="evenodd" clip-rule="evenodd" d="M92.4712 380.714C92.799 380.227 93.0706 379.866 93.2975 379.485C97.2798 372.809 101.233 366.123 105.258 359.469C105.806 358.563 105.77 357.894 105.236 357.01C101.22 350.352 97.261 343.668 93.2785 336.993C93.0561 336.621 92.7846 336.272 92.4574 335.8C92.119 336.321 91.8588 336.697 91.6257 337.088C87.6682 343.717 83.7379 350.358 79.7398 356.969C79.1682 357.914 79.187 358.624 79.7562 359.563C83.7536 366.172 87.6839 372.815 91.6395 379.444C91.8713 379.835 92.1377 380.207 92.4712 380.714V380.714ZM92.5107 333.643C92.8053 334.08 93.0486 334.409 93.2535 334.755C97.701 342.214 102.13 349.681 106.605 357.127C107.074 357.908 107.132 358.509 106.646 359.316C102.116 366.847 97.6333 374.402 93.1344 381.949C92.9809 382.209 92.799 382.453 92.5421 382.834C92.2631 382.496 92.0187 382.264 91.8556 381.99C87.3254 374.403 82.807 366.809 78.2686 359.225C77.9039 358.616 77.7578 358.114 78.1653 357.435C82.8208 349.681 87.4395 341.909 92.0739 334.144C92.1502 334.016 92.2725 333.912 92.5107 333.643" fill="#181818"/>
<path fill-rule="evenodd" clip-rule="evenodd" d="M403.454 335.766C403.096 336.315 402.833 336.688 402.602 337.079C398.644 343.71 394.713 350.351 390.717 356.961C390.146 357.903 390.152 358.613 390.72 359.556C394.719 366.166 398.649 372.808 402.605 379.438C402.836 379.826 403.102 380.2 403.438 380.711C403.767 380.23 404.036 379.871 404.264 379.491C408.246 372.818 412.201 366.132 416.223 359.476C416.765 358.577 416.752 357.91 416.213 357.016C412.169 350.318 408.186 343.586 404.181 336.867C403.999 336.565 403.789 336.273 403.454 335.766ZM403.451 333.591C403.788 334.095 404.027 334.426 404.234 334.771C408.68 342.231 413.119 349.694 417.576 357.146C417.991 357.84 418.185 358.398 417.696 359.207C413.102 366.818 408.57 374.461 404.015 382.095C403.887 382.308 403.73 382.509 403.491 382.851C403.187 382.453 402.924 382.167 402.733 381.847C398.258 374.345 393.797 366.837 389.31 359.341C388.888 358.636 388.743 358.072 389.218 357.283C393.809 349.669 398.344 342.027 402.899 334.392C403.027 334.178 403.184 333.976 403.451 333.591Z" fill="#181818"/>
<path fill-rule="evenodd" clip-rule="evenodd" d="M92.4668 55.2033C92.796 54.7225 93.0673 54.3655 93.2923 53.9867C97.2748 47.3121 101.23 40.6258 105.25 33.9716C105.794 33.0726 105.782 32.4038 105.244 31.5121C101.199 24.8113 97.2153 18.0813 93.2084 11.363C93.0091 11.0308 92.7539 10.7277 92.4511 10.3095C92.1252 10.8064 91.8618 11.1808 91.63 11.5698C87.6746 18.2007 83.743 24.8418 79.7461 31.4509C79.1775 32.3921 79.1775 33.1032 79.7499 34.0473C83.7473 40.6564 87.6777 47.2975 91.633 53.9284C91.8651 54.3189 92.1315 54.6919 92.4668 55.2033V55.2033ZM92.453 57.415C92.0437 56.7652 91.7667 56.3412 91.5077 55.907C87.1637 48.6248 82.8427 41.3324 78.4567 34.0706C77.8894 33.1323 77.853 32.4286 78.4284 31.4786C82.8384 24.1716 87.1856 16.8341 91.5547 9.50671C91.8135 9.07397 92.095 8.65287 92.4429 8.10358C92.752 8.5334 93.0059 8.83792 93.2045 9.17013C97.679 16.6723 102.139 24.1804 106.634 31.6738C107.063 32.3936 107.166 32.956 106.697 33.7312C102.137 41.3048 97.629 48.9031 93.0999 56.4928C92.9463 56.7492 92.7552 56.9852 92.453 57.415" fill="#181818"/>
<path fill-rule="evenodd" clip-rule="evenodd" d="M403.454 173.011C403.094 173.563 402.833 173.939 402.6 174.329C398.643 180.959 394.713 187.6 390.715 194.209C390.146 195.152 390.152 195.863 390.722 196.805C394.695 203.369 398.599 209.967 402.529 216.553C402.788 216.985 403.069 217.406 403.428 217.975C403.767 217.475 404.04 217.116 404.266 216.736C408.246 210.063 412.201 203.375 416.223 196.722C416.768 195.821 416.749 195.153 416.211 194.263C412.193 187.606 408.236 180.92 404.256 174.246C404.049 173.898 403.815 173.563 403.454 173.011V173.011ZM403.463 170.827C403.823 171.391 404.078 171.769 404.311 172.16C408.706 179.531 413.082 186.912 417.516 194.264C418.052 195.153 418.071 195.822 417.531 196.72C413.095 204.072 408.719 211.452 404.324 218.823C404.092 219.212 403.833 219.586 403.494 220.111C403.183 219.697 402.921 219.407 402.73 219.086C398.254 211.583 393.793 204.075 389.305 196.58C388.88 195.87 388.751 195.305 389.225 194.522C393.813 186.908 398.349 179.266 402.903 171.631C403.032 171.417 403.191 171.216 403.463 170.827" fill="#181818"/>
<path fill-rule="evenodd" clip-rule="evenodd" d="M247.959 335.765C247.598 336.32 247.364 336.654 247.159 337.002C243.177 343.676 239.218 350.363 235.2 357.018C234.659 357.911 234.65 358.58 235.194 359.479C239.212 366.132 243.169 372.82 247.152 379.493C247.377 379.871 247.647 380.229 247.975 380.711C248.311 380.2 248.577 379.826 248.81 379.436C252.766 372.807 256.696 366.162 260.695 359.555C261.266 358.611 261.266 357.9 260.698 356.96C256.702 350.35 252.769 343.708 248.813 337.078C248.58 336.688 248.317 336.314 247.959 335.765V335.765ZM247.958 333.56C248.317 334.121 248.597 334.531 248.85 334.955C253.245 342.326 257.63 349.702 262.046 357.063C262.495 357.814 262.688 358.407 262.179 359.253C257.614 366.822 253.107 374.422 248.577 382.012C248.425 382.269 248.227 382.501 247.942 382.894C247.6 382.362 247.318 381.955 247.067 381.533C242.694 374.207 238.347 366.868 233.934 359.565C233.364 358.621 233.351 357.917 233.923 356.972C238.333 349.666 242.68 342.329 247.048 335.001C247.308 334.567 247.587 334.146 247.958 333.56Z" fill="#181818"/>
<path fill-rule="evenodd" clip-rule="evenodd" d="M325.696 258.574C326.035 258.086 326.251 257.81 326.428 257.512C330.464 250.752 334.477 243.982 338.545 237.241C339.038 236.42 338.938 235.804 338.48 235.039C334.45 228.332 330.457 221.611 326.446 214.897C326.251 214.571 325.988 214.278 325.677 213.863C325.406 214.243 325.215 214.476 325.064 214.728C321.004 221.533 316.965 228.347 312.871 235.134C312.378 235.953 312.473 236.569 312.934 237.334C316.936 243.995 320.904 250.674 324.884 257.346C325.091 257.693 325.329 258.021 325.696 258.574V258.574ZM325.703 260.774C325.311 260.177 325.021 259.769 324.769 259.344C320.423 252.059 316.101 244.759 311.721 237.491C311.151 236.552 311.141 235.842 311.711 234.895C316.097 227.629 320.415 220.331 324.759 213.043C325.014 212.616 325.303 212.205 325.677 211.631C325.972 212.03 326.197 212.288 326.367 212.572C330.846 220.076 335.313 227.587 339.805 235.084C340.23 235.791 340.376 236.364 339.903 237.15C335.315 244.772 330.777 252.419 326.223 260.056C326.121 260.228 325.987 260.386 325.703 260.774" fill="#181818"/>
<path fill-rule="evenodd" clip-rule="evenodd" d="M247.961 217.986C248.32 217.435 248.584 217.061 248.818 216.669C252.774 210.041 256.702 203.397 260.701 196.789C261.274 195.842 261.256 195.13 260.69 194.193C256.696 187.584 252.762 180.941 248.807 174.312C248.574 173.923 248.308 173.55 247.974 173.04C247.648 173.522 247.379 173.881 247.152 174.261C243.171 180.934 239.214 187.622 235.192 194.275C234.647 195.177 234.664 195.845 235.2 196.737C239.218 203.393 243.177 210.078 247.157 216.754C247.362 217.1 247.6 217.434 247.961 217.986V217.986ZM247.964 170.834C248.293 171.329 248.534 171.659 248.741 172.004C253.188 179.463 257.626 186.927 262.08 194.382C262.49 195.067 262.71 195.625 262.219 196.44C257.597 204.096 253.042 211.784 248.46 219.461C248.359 219.633 248.219 219.784 248.009 220.061C247.748 219.742 247.502 219.509 247.34 219.235C242.808 211.647 238.294 204.05 233.745 196.472C233.327 195.78 233.311 195.248 233.732 194.547C238.31 186.924 242.852 179.285 247.406 171.651C247.534 171.437 247.69 171.233 247.964 170.834" fill="#181818"/>
<path fill-rule="evenodd" clip-rule="evenodd" d="M14.7235 95.7945C15.0005 95.4361 15.1429 95.286 15.2451 95.1155C19.3822 88.1801 23.5069 81.2359 27.663 74.3121C28.058 73.655 28.0172 73.148 27.6367 72.5142C23.5101 65.6297 19.4124 58.7322 15.2964 51.8419C15.1573 51.6059 14.9179 51.4209 14.659 51.1411C14.3569 51.6001 14.1198 51.9308 13.913 52.2761C9.95874 58.9056 6.03034 65.5467 2.03416 72.1528C1.45746 73.1043 1.49508 73.8167 2.05924 74.7521C6.02594 81.3175 9.92745 87.9149 13.8554 94.5006C14.084 94.8838 14.353 95.2466 14.7235 95.7945ZM14.7235 48.8244C15.087 49.3693 15.3234 49.6943 15.5272 50.0352C19.9527 57.4529 24.3563 64.8794 28.8163 72.281C29.3336 73.1348 29.3085 73.7716 28.8008 74.6137C24.3688 81.9731 19.9903 89.3559 15.5911 96.7284C15.3641 97.1102 15.0945 97.4715 14.7466 97.9888C14.4019 97.4919 14.1293 97.1408 13.9048 96.7648C9.50621 89.3923 5.12453 82.011 0.698966 74.6516C0.201882 73.8255 0.103463 73.1888 0.63001 72.316C5.1214 64.8735 9.55322 57.4034 14.0038 49.942C14.1856 49.6404 14.3862 49.3475 14.7235 48.8244" fill="#181818"/>
<path fill-rule="evenodd" clip-rule="evenodd" d="M170.211 95.7785C170.471 95.455 170.585 95.3443 170.664 95.2146C174.827 88.234 178.978 81.2491 183.168 74.2816C183.571 73.6113 183.476 73.1058 183.104 72.4836C179.005 65.6414 174.933 58.7891 170.841 51.9425C170.678 51.6715 170.412 51.4559 170.146 51.1601C169.934 51.4486 169.799 51.6059 169.695 51.7793C165.583 58.6725 161.496 65.5759 157.343 72.4487C156.828 73.3025 157.048 73.9071 157.494 74.6473C161.461 81.2695 165.404 87.9033 169.361 94.5313C169.587 94.9101 169.862 95.2656 170.211 95.7785ZM170.226 48.8463C170.617 49.4437 170.908 49.8502 171.161 50.2771C175.506 57.5622 179.829 64.8619 184.21 72.1295C184.778 73.0693 184.789 73.7789 184.219 74.726C179.833 81.9936 175.514 89.2904 171.17 96.5784C170.914 97.0053 170.626 97.4176 170.253 97.9917C169.956 97.5925 169.733 97.3346 169.562 97.0505C165.083 89.5453 160.615 82.0358 156.123 74.538C155.7 73.8314 155.554 73.2602 156.027 72.472C160.615 64.8503 165.152 57.2038 169.706 49.5661C169.807 49.3927 169.942 49.2354 170.226 48.8463Z" fill="#181818"/>
<path fill-rule="evenodd" clip-rule="evenodd" d="M325.714 51.0873C325.393 51.5433 325.144 51.8508 324.945 52.183C320.935 58.8969 316.952 65.624 312.902 72.3205C312.374 73.1947 312.481 73.8358 312.974 74.6576C316.957 81.271 320.893 87.9077 324.85 94.5357C325.075 94.9145 325.348 95.2686 325.699 95.7785C326.022 95.3225 326.272 95.0151 326.47 94.6843C330.48 87.9689 334.466 81.2418 338.515 74.5454C339.044 73.6682 338.93 73.0286 338.436 72.2112C334.456 65.5963 330.52 58.9581 326.564 52.3301C326.338 51.9513 326.064 51.5973 325.714 51.0873V51.0873ZM325.68 98.0034C325.342 97.4862 325.107 97.1554 324.903 96.8116C320.478 89.3939 316.066 81.9689 311.619 74.5629C311.152 73.7863 311.09 73.1714 311.579 72.3627C316.087 64.8736 320.548 57.3612 325.027 49.8561C325.199 49.5662 325.417 49.2981 325.714 48.8843C326.057 49.3899 326.327 49.7454 326.552 50.1242C330.95 57.4968 335.344 64.8736 339.744 72.2462C340.144 72.9149 340.455 73.4759 339.954 74.3079C335.334 81.9704 330.777 89.662 326.195 97.3434C326.094 97.5124 325.951 97.6596 325.68 98.0034" fill="#181818"/>
<path fill-rule="evenodd" clip-rule="evenodd" d="M187.692 285.98C187.889 286.366 187.974 286.592 188.109 286.788C192.681 293.549 197.267 300.302 201.822 307.071C202.223 307.669 202.701 307.847 203.423 307.862C211.994 308.062 220.567 308.282 229.139 308.492C229.503 308.5 229.869 308.443 230.389 308.403C230.177 307.987 230.054 307.67 229.866 307.391C225.41 300.802 220.924 294.225 216.505 287.614C215.956 286.795 215.303 286.608 214.355 286.587C206.058 286.4 197.762 286.184 189.464 285.981C188.936 285.968 188.408 285.98 187.692 285.98V285.98ZM232.519 309.607C231.8 309.607 231.253 309.617 230.707 309.603C221.586 309.381 212.464 309.139 203.345 308.951C202.171 308.928 201.47 308.578 200.849 307.65C196.085 300.53 191.259 293.442 186.451 286.344C186.195 285.963 185.959 285.573 185.625 285.053C186.071 284.986 186.418 284.884 186.758 284.893C196.264 285.127 205.771 285.379 215.276 285.605C216.048 285.624 216.603 285.771 217.039 286.423C222.109 293.96 227.207 301.479 232.292 309.008C232.373 309.126 232.395 309.274 232.519 309.607Z" fill="#181818"/>
<path fill-rule="evenodd" clip-rule="evenodd" d="M230.428 145.636C230.182 145.201 230.039 144.892 229.847 144.609C225.389 138.02 220.91 131.442 216.482 124.836C215.979 124.084 215.396 123.854 214.486 123.835C206.024 123.648 197.561 123.427 189.099 123.218C188.688 123.208 188.278 123.217 187.714 123.217C187.881 123.589 187.936 123.775 188.043 123.932C192.644 130.737 197.258 137.532 201.838 144.347C202.247 144.956 202.752 145.091 203.458 145.109C212.031 145.311 220.603 145.53 229.176 145.738C229.531 145.748 229.892 145.683 230.428 145.636V145.636ZM232.637 146.856C231.904 146.856 231.427 146.866 230.951 146.854C221.719 146.63 212.488 146.395 203.256 146.188C202.247 146.168 201.552 145.945 200.974 145.087C196.064 137.754 191.096 130.454 186.147 123.143C185.983 122.899 185.856 122.636 185.628 122.231C186.079 122.188 186.382 122.127 186.681 122.133C196.186 122.372 205.692 122.63 215.199 122.841C216.133 122.861 216.68 123.134 217.171 123.864C222.122 131.234 227.111 138.58 232.087 145.935C232.23 146.143 232.347 146.366 232.637 146.856" fill="#181818"/>
<path fill-rule="evenodd" clip-rule="evenodd" d="M92.4837 217.916C92.705 217.619 92.8762 217.427 93.0028 217.212C97.1444 210.277 101.271 203.333 105.436 196.409C105.872 195.688 105.765 195.153 105.362 194.48C101.255 187.639 97.1827 180.784 93.0917 173.936C92.9295 173.664 92.6906 173.428 92.428 173.097C92.1992 173.432 92.0437 173.633 91.9139 173.85C87.8017 180.743 83.7066 187.647 79.5569 194.521C79.0867 195.302 79.2101 195.867 79.6383 196.581C83.6878 203.336 87.7059 210.107 91.7398 216.867C91.9403 217.205 92.1973 217.514 92.4837 217.916V217.916ZM92.4511 170.841C92.7645 171.29 93.0171 171.606 93.219 171.946C97.6948 179.449 102.152 186.959 106.649 194.448C107.091 195.184 107.138 195.748 106.681 196.507C102.152 204.038 97.6697 211.594 93.1689 219.14C92.9903 219.439 92.7602 219.713 92.4511 220.14C92.1095 219.606 91.8274 219.194 91.5735 218.769C87.2044 211.443 82.8553 204.104 78.4422 196.8C77.8706 195.854 77.8737 195.149 78.441 194.206C82.8509 186.901 87.2 179.564 91.5705 172.237C91.8274 171.804 92.1095 171.382 92.4511 170.841" fill="#181818"/>
<path fill-rule="evenodd" clip-rule="evenodd" d="M343.056 286.007C348.081 293.427 352.937 300.599 357.756 307.716C361.774 308.196 384.398 308.617 385.835 308.223C385.593 307.825 385.378 307.433 385.128 307.063C380.814 300.685 376.472 294.322 372.205 287.919C371.552 286.94 370.826 286.589 369.581 286.565C361.832 286.423 354.084 286.199 346.336 286.01C345.357 285.988 344.379 286.007 343.056 286.007ZM388.117 309.597C387.047 309.597 386.235 309.613 385.425 309.593C376.632 309.376 367.843 309.126 359.049 308.967C357.661 308.942 356.894 308.497 356.189 307.44C351.488 300.4 346.715 293.401 341.97 286.386C341.691 285.976 341.445 285.548 341.092 284.971C341.638 284.936 341.996 284.884 342.353 284.893C351.748 285.129 361.145 285.382 370.541 285.596C371.5 285.618 372.136 285.831 372.672 286.632C377.587 293.963 382.55 301.267 387.498 308.58C387.666 308.827 387.811 309.091 388.117 309.597Z" fill="#181818"/>
<path fill-rule="evenodd" clip-rule="evenodd" d="M32.0853 286.007C37.1189 293.441 41.9771 300.617 46.7943 307.73C51.7873 308.261 73.5046 308.635 74.8554 308.201C74.6435 307.851 74.453 307.5 74.2285 307.171C69.8864 300.749 65.5141 294.346 61.2214 287.898C60.5601 286.907 59.811 286.59 58.5823 286.567C50.8344 286.421 43.0866 286.2 35.3388 286.012C34.3639 285.989 33.3892 286.007 32.0853 286.007V286.007ZM77.1359 309.575C75.7393 309.575 74.5953 309.6 73.4526 309.572C64.9919 309.366 56.5306 309.119 48.0688 308.966C46.6753 308.942 45.9169 308.484 45.2135 307.431C40.5115 300.393 35.7387 293.393 30.9915 286.379C30.7157 285.97 30.4743 285.541 30.1234 284.969C30.673 284.935 31.0353 284.884 31.3927 284.893C40.8436 285.13 50.2935 285.388 59.7452 285.594C60.7012 285.616 61.2214 285.932 61.7009 286.644C66.5967 293.925 71.528 301.188 76.4477 308.459C76.645 308.749 76.8156 309.054 77.1359 309.575" fill="#181818"/>
<path fill-rule="evenodd" clip-rule="evenodd" d="M14.758 213.791C14.4177 214.28 14.2013 214.552 14.0258 214.846C9.99082 221.607 5.97578 228.376 1.90878 235.121C1.42171 235.929 1.48879 236.547 1.95265 237.319C5.98331 244.025 9.9783 250.747 13.9882 257.463C14.1843 257.791 14.4395 258.091 14.7542 258.525C15.0551 258.094 15.2733 257.821 15.4487 257.525C19.4845 250.766 23.4987 243.997 27.5658 237.254C28.0528 236.444 27.9827 235.826 27.5187 235.054C23.5414 228.436 19.6016 221.799 15.6482 215.17C15.4144 214.779 15.1529 214.4 14.758 213.791V213.791ZM14.7373 211.578C15.126 212.177 15.3892 212.55 15.6199 212.938C19.9903 220.268 24.3438 227.607 28.7443 234.923C29.2727 235.798 29.3491 236.47 28.7943 237.389C24.3532 244.741 19.9777 252.127 15.5804 259.501C15.3547 259.879 15.0852 260.234 14.7373 260.744C14.3894 260.235 14.1198 259.881 13.8942 259.503C9.49367 252.129 5.11511 244.747 0.686417 237.388C0.184936 236.554 0.121004 235.918 0.642544 235.054C5.13079 227.61 9.56267 220.14 14.0152 212.678C14.1951 212.378 14.3987 212.09 14.7373 211.578Z" fill="#181818"/>
<path fill-rule="evenodd" clip-rule="evenodd" d="M170.221 213.848C169.945 214.221 169.748 214.444 169.6 214.692C165.516 221.54 161.451 228.398 157.33 235.229C156.852 236.02 157.009 236.591 157.431 237.295C161.451 244.004 165.45 250.724 169.46 257.44C169.658 257.77 169.907 258.078 170.223 258.525C170.497 258.153 170.694 257.931 170.842 257.683C174.929 250.835 178.994 243.977 183.114 237.146C183.59 236.356 183.436 235.784 183.012 235.08C178.991 228.37 174.992 221.649 170.983 214.934C170.786 214.602 170.536 214.297 170.221 213.848ZM170.244 211.634C170.609 212.189 170.901 212.595 171.152 213.018C175.497 220.304 179.821 227.601 184.2 234.872C184.765 235.803 184.803 236.515 184.229 237.468C179.84 244.733 175.522 252.033 171.177 259.319C170.921 259.747 170.635 260.163 170.263 260.737C169.945 260.306 169.692 260.01 169.496 259.683C165.041 252.223 160.597 244.759 156.133 237.305C155.713 236.604 155.541 236.033 156.021 235.237C160.583 227.661 165.091 220.058 169.619 212.466C169.767 212.221 169.968 212.001 170.244 211.634" fill="#181818"/>
<path fill-rule="evenodd" clip-rule="evenodd" d="M110.025 326.728C110.313 327.228 110.504 327.621 110.749 327.984C115.121 334.446 119.514 340.897 123.85 347.377C124.405 348.208 125.022 348.527 126.082 348.549C134.378 348.718 142.676 348.943 150.973 349.146C151.5 349.161 152.03 349.149 152.753 349.149C152.556 348.765 152.473 348.54 152.339 348.345C147.766 341.582 143.182 334.829 138.625 328.061C138.229 327.47 137.757 327.279 137.027 327.263C128.401 327.066 119.774 326.843 111.147 326.634C110.837 326.626 110.524 326.683 110.025 326.728V326.728ZM107.862 325.532C108.9 325.532 109.718 325.516 110.533 325.535C119.269 325.75 128.005 325.994 136.741 326.164C138.142 326.192 139.001 326.555 139.766 327.706C144.445 334.757 149.229 341.75 153.975 348.765C154.251 349.172 154.488 349.604 154.828 350.166C154.273 350.199 153.91 350.251 153.551 350.24C144.154 350.003 134.76 349.752 125.364 349.522C124.501 349.502 123.853 349.389 123.327 348.605C118.327 341.145 113.275 333.716 108.243 326.278C108.132 326.116 108.063 325.93 107.862 325.532" fill="#181818"/>
<path fill-rule="evenodd" clip-rule="evenodd" d="M74.9776 1.18554C74.3633 1.1564 74.0354 1.11999 73.7114 1.12873C65.1393 1.33854 56.5671 1.56729 47.9949 1.74505C47.0827 1.76253 46.6252 2.1093 46.1895 2.75621C41.7483 9.35507 37.2819 15.9408 32.8301 22.5338C32.6183 22.8471 32.4783 23.2026 32.2484 23.6528C32.7173 23.6528 32.9912 23.6601 33.2638 23.6528C41.8893 23.4386 50.5148 23.2113 59.1435 23.0336C60.1275 23.0132 60.6009 22.6023 61.0647 21.9131C65.4494 15.4017 69.8625 8.9034 74.263 2.39925C74.4836 2.07288 74.6629 1.72464 74.9776 1.18554V1.18554ZM30.0386 24.6567C31.7844 22.0749 33.3641 19.7378 34.9438 17.4037C38.4542 12.2181 41.9801 7.04131 45.4624 1.83974C45.9702 1.08063 46.5342 0.707645 47.5404 0.684332C57.0465 0.477435 66.5527 0.232664 76.0577 0.000997079C76.3273 -0.00628803 76.598 0.0257409 77.0368 0.0475962C76.8193 0.468676 76.6764 0.824189 76.4632 1.14036C71.5487 8.41091 66.6124 15.6698 61.7216 22.9535C61.1964 23.7344 60.5914 24.0025 59.6104 24.0258C50.2139 24.2386 40.8206 24.495 31.4259 24.7325C31.0617 24.7427 30.6969 24.6946 30.0386 24.6567" fill="#181818"/>
<path fill-rule="evenodd" clip-rule="evenodd" d="M110.022 1.22508C110.26 1.65782 110.4 1.96671 110.589 2.24646C115.048 8.83803 119.527 15.4165 123.954 22.0226C124.455 22.7701 125.037 23.0119 125.948 23.0309C134.466 23.2203 142.982 23.4388 151.499 23.6501C151.855 23.6588 152.213 23.6501 152.729 23.6501C152.563 23.2858 152.51 23.0994 152.404 22.942C147.804 16.1377 143.192 9.34215 138.609 2.52765C138.205 1.9259 137.707 1.77291 136.993 1.75688C128.423 1.55873 119.851 1.33874 111.279 1.13039C110.92 1.12165 110.558 1.18283 110.022 1.22508ZM107.818 0.01283C108.58 0.01283 109.107 0.00117527 109.633 0.0142885C118.755 0.237213 127.874 0.479076 136.997 0.667032C138.217 0.693258 138.968 1.02401 139.631 2.01915C144.413 9.18916 149.272 16.3155 154.105 23.4578C154.328 23.7871 154.522 24.1339 154.82 24.6176C154.326 24.6686 153.973 24.7429 153.623 24.7342C144.229 24.4981 134.834 24.2373 125.439 24.0289C124.39 24.0056 123.759 23.7448 123.192 22.9012C118.34 15.654 113.429 8.43733 108.539 1.2105C108.32 0.887039 108.135 0.541729 107.818 0.01283" fill="#181818"/>
<path fill-rule="evenodd" clip-rule="evenodd" d="M308.378 23.6441C303.321 16.174 298.459 8.9996 293.642 1.88495C288.38 1.3444 266.926 0.983066 265.605 1.42017C265.695 1.59793 265.767 1.78149 265.876 1.94468C270.421 8.66155 274.983 15.3682 279.493 22.1041C280.016 22.8865 280.675 23.0059 281.539 23.0278C289.89 23.223 298.244 23.4358 306.595 23.6427C307.073 23.6543 307.55 23.6441 308.378 23.6441ZM310.294 24.6859C309.798 24.7136 309.527 24.75 309.257 24.7427C299.754 24.4994 290.248 24.24 280.743 24.0229C279.817 24.0011 279.257 23.7476 278.762 23.0118C273.783 15.5999 268.762 8.21133 263.756 0.815487C263.644 0.647929 263.559 0.464342 263.391 0.15691C263.798 0.098629 264.138 -0.00190981 264.475 0.00683232C273.926 0.229757 283.378 0.468738 292.828 0.69312C293.696 0.713518 294.343 0.879595 294.86 1.65182C299.86 9.1074 304.913 16.5382 309.947 23.9763C310.053 24.1366 310.116 24.3216 310.294 24.6859" fill="#181818"/>
<path fill-rule="evenodd" clip-rule="evenodd" d="M32.2044 349.079C32.5982 349.124 32.7592 349.161 32.9192 349.158C41.7107 348.947 50.5023 348.721 59.2938 348.528C60.1338 348.511 60.5664 348.158 60.9706 347.558C65.4464 340.921 69.944 334.294 74.428 327.66C74.6092 327.391 74.6924 327.066 74.8743 326.645C74.208 326.645 73.7177 326.635 73.2288 326.648C64.8759 326.853 56.5263 327.078 48.1735 327.245C47.1518 327.267 46.6076 327.629 46.105 328.378C41.7545 334.854 37.3697 341.307 32.9994 347.771C32.7467 348.144 32.5336 348.536 32.2044 349.079V349.079ZM77.2061 325.52C76.2282 326.983 75.4385 328.174 74.6361 329.358C70.3778 335.65 66.0983 341.928 61.8796 348.24C61.2698 349.152 60.5946 349.518 59.4067 349.544C50.0647 349.741 40.7265 350.003 31.3865 350.244C31.0606 350.253 30.7345 350.244 30.2518 350.244C30.3803 349.887 30.4191 349.608 30.5684 349.387C35.5675 341.986 40.5917 334.602 45.5627 327.186C46.1175 326.357 46.8207 326.212 47.7453 326.192C54.3951 326.052 61.0427 325.893 67.6905 325.734C70.2179 325.673 72.7441 325.589 75.2722 325.521C75.8082 325.508 76.3474 325.52 77.2061 325.52Z" fill="#181818"/>
<path fill-rule="evenodd" clip-rule="evenodd" d="M308.241 123.286C307.84 123.245 307.677 123.211 307.515 123.214C298.722 123.427 289.931 123.653 281.139 123.842C280.293 123.861 279.873 124.227 279.472 124.823C274.993 131.46 270.495 138.085 266.011 144.72C265.83 144.985 265.753 145.31 265.575 145.735C266.191 145.735 266.624 145.744 267.061 145.733C275.466 145.524 283.872 145.298 292.282 145.128C293.306 145.108 293.844 144.73 294.344 143.987C298.724 137.47 303.137 130.973 307.537 124.467C307.758 124.137 307.943 123.788 308.241 123.286ZM263.265 146.789C265.371 143.672 267.322 140.783 269.277 137.895C272.414 133.262 275.558 128.634 278.682 123.995C279.128 123.335 279.544 122.86 280.569 122.838C290.185 122.636 299.801 122.374 309.415 122.132C309.63 122.126 309.846 122.162 310.214 122.193C310.05 122.554 309.957 122.872 309.776 123.143C304.833 130.457 299.871 137.761 294.943 145.084C294.47 145.786 293.959 146.162 292.998 146.183C283.437 146.388 273.878 146.634 264.315 146.865C264.058 146.871 263.798 146.83 263.265 146.789Z" fill="#181818"/>
<path fill-rule="evenodd" clip-rule="evenodd" d="M343.082 349.085C343.605 349.129 343.817 349.165 344.027 349.159C352.763 348.948 361.5 348.719 370.237 348.532C371.165 348.515 371.585 348.086 372.011 347.453C376.43 340.899 380.872 334.36 385.298 327.811C385.511 327.495 385.649 327.136 385.93 326.585C376.411 326.822 367.14 327.053 357.844 327.285C352.94 334.526 348.084 341.699 343.082 349.085V349.085ZM341.115 350.166C341.358 349.736 341.501 349.432 341.691 349.15C346.608 341.883 351.542 334.622 356.437 327.339C356.949 326.58 357.517 326.214 358.521 326.192C368.028 325.985 377.533 325.74 387.037 325.508C387.307 325.502 387.577 325.535 387.991 325.558C387.808 325.933 387.7 326.249 387.514 326.524C382.57 333.839 377.606 341.141 372.688 348.469C372.161 349.254 371.548 349.509 370.573 349.532C361.175 349.745 351.783 350.001 342.387 350.24C342.026 350.251 341.662 350.199 341.115 350.166" fill="#181818"/>
<path fill-rule="evenodd" clip-rule="evenodd" d="M385.871 145.648C385.664 145.24 385.543 144.921 385.354 144.643C380.896 138.051 376.411 131.476 371.993 124.865C371.446 124.049 370.794 123.854 369.846 123.832C361.549 123.648 353.251 123.431 344.953 123.229C344.427 123.214 343.899 123.226 343.178 123.226C343.374 123.609 343.457 123.835 343.589 124.03C348.163 130.791 352.747 137.544 357.303 144.313C357.703 144.908 358.178 145.093 358.903 145.109C367.532 145.309 376.157 145.531 384.786 145.743C385.096 145.75 385.407 145.692 385.871 145.648V145.648ZM341.113 122.216C341.602 122.178 341.91 122.127 342.22 122.136C351.725 122.374 361.23 122.627 370.735 122.846C371.597 122.866 372.134 123.089 372.598 123.778C377.579 131.186 382.595 138.577 387.601 145.974C387.739 146.18 387.846 146.401 388.055 146.767C387.525 146.805 387.118 146.868 386.713 146.859C377.372 146.636 368.032 146.394 358.691 146.19C357.656 146.168 357.001 145.888 356.435 145.045C351.582 137.798 346.673 130.581 341.785 123.354C341.569 123.032 341.389 122.685 341.113 122.216" fill="#181818"/>
<path fill-rule="evenodd" clip-rule="evenodd" d="M357.841 164.531C352.937 171.778 348.061 178.979 343.079 186.343C343.64 186.376 343.9 186.413 344.159 186.405C352.84 186.193 361.52 185.967 370.204 185.78C371.117 185.761 371.561 185.371 371.996 184.727C376.44 178.128 380.912 171.547 385.368 164.955C385.555 164.68 385.66 164.358 385.914 163.833C376.427 164.069 367.163 164.299 357.841 164.531V164.531ZM388.085 162.807C387.745 163.364 387.528 163.753 387.28 164.123C382.448 171.265 377.6 178.398 372.8 185.557C372.219 186.423 371.579 186.764 370.449 186.789C361.106 186.985 351.768 187.247 342.429 187.485C342.058 187.495 341.687 187.454 341.143 187.428C341.358 187.016 341.484 186.705 341.668 186.43C346.587 179.16 351.52 171.899 356.419 164.618C356.92 163.874 357.456 163.46 358.481 163.438C368.042 163.234 377.601 162.987 387.163 162.755C387.378 162.751 387.596 162.778 388.085 162.807" fill="#181818"/>
<path fill-rule="evenodd" clip-rule="evenodd" d="M308.16 186.372C308.05 186.064 308.028 185.913 307.949 185.795C303.325 178.948 298.684 172.109 294.076 165.251C293.664 164.636 293.138 164.528 292.441 164.512C283.87 164.309 275.299 164.091 266.728 163.884C266.374 163.875 266.019 163.942 265.486 163.99C265.838 164.57 266.077 165.003 266.353 165.415C270.638 171.75 274.953 178.07 279.191 184.429C279.841 185.401 280.54 185.784 281.802 185.808C289.662 185.951 297.515 186.178 305.374 186.37C306.25 186.392 307.126 186.372 308.16 186.372V186.372ZM310.3 187.412C309.758 187.447 309.395 187.496 309.033 187.488C299.638 187.249 290.243 186.998 280.849 186.769C279.984 186.748 279.335 186.632 278.811 185.85C273.812 178.39 268.76 170.961 263.726 163.523C263.615 163.361 263.546 163.174 263.387 162.857C263.891 162.817 264.296 162.752 264.7 162.761C274.041 162.985 283.381 163.228 292.722 163.432C293.754 163.456 294.413 163.731 294.98 164.578C299.863 171.866 304.802 179.124 309.721 186.392C309.91 186.673 310.056 186.979 310.3 187.412" fill="#181818"/>
<path fill-rule="evenodd" clip-rule="evenodd" d="M152.72 186.395C152.566 186.047 152.513 185.859 152.408 185.703C147.808 178.899 143.197 172.103 138.616 165.289C138.211 164.69 137.722 164.527 137.005 164.511C128.432 164.312 119.86 164.091 111.288 163.884C110.928 163.875 110.566 163.935 110.033 163.974C110.263 164.401 110.396 164.713 110.586 164.994C115.043 171.584 119.528 178.16 123.944 184.773C124.499 185.604 125.172 185.764 126.104 185.785C134.401 185.975 142.698 186.19 150.996 186.394C151.521 186.407 152.047 186.395 152.72 186.395V186.395ZM154.851 187.488C150.768 187.403 146.981 187.341 143.197 187.244C137.261 187.094 131.328 186.908 125.395 186.777C124.439 186.755 123.8 186.552 123.26 185.747C118.315 178.374 113.322 171.031 108.345 163.676C108.204 163.469 108.093 163.244 107.89 162.892C108.33 162.838 108.676 162.753 109.019 162.759C118.469 162.985 127.918 163.224 137.368 163.444C138.252 163.466 138.879 163.667 139.388 164.426C144.362 171.841 149.385 179.226 154.39 186.624C154.525 186.823 154.617 187.046 154.851 187.488" fill="#181818"/>
<path fill-rule="evenodd" clip-rule="evenodd" d="M308.229 349.124C308.038 348.744 307.967 348.559 307.858 348.397C303.286 341.636 298.7 334.885 294.15 328.112C293.714 327.464 293.2 327.277 292.417 327.26C283.899 327.068 275.381 326.848 266.866 326.642C266.462 326.632 266.056 326.707 265.483 326.756C265.844 327.343 266.087 327.777 266.366 328.19C270.652 334.525 274.966 340.844 279.204 347.202C279.858 348.183 280.584 348.537 281.829 348.56C289.63 348.706 297.434 348.93 305.236 349.121C306.16 349.143 307.086 349.124 308.229 349.124V349.124ZM263.355 325.516C264.023 325.516 264.461 325.506 264.897 325.518C274.128 325.744 283.358 325.988 292.589 326.179C293.765 326.202 294.463 326.561 295.081 327.485C299.905 334.689 304.788 341.862 309.649 349.047C309.848 349.34 310.026 349.646 310.297 350.082C309.853 350.149 309.508 350.251 309.166 350.241C299.661 350.004 290.156 349.749 280.651 349.52C279.879 349.501 279.326 349.354 278.888 348.703C273.844 341.21 268.771 333.734 263.71 326.25C263.604 326.09 263.541 325.905 263.355 325.516" fill="#181818"/>
<path fill-rule="evenodd" clip-rule="evenodd" d="M32.1306 186.446C35.1839 186.354 37.9245 186.255 40.667 186.19C46.7663 186.043 52.8654 185.901 58.9647 185.783C59.8549 185.766 60.4711 185.575 60.9832 184.811C65.437 178.162 69.946 171.541 74.428 164.906C74.6092 164.637 74.6925 164.313 74.8762 163.889C74.263 163.889 73.8273 163.878 73.3918 163.889C64.9857 164.095 56.5796 164.323 48.1716 164.492C47.1518 164.514 46.6065 164.878 46.105 165.625C41.7545 172.102 37.3698 178.555 32.9994 185.018C32.7467 185.391 32.5318 185.783 32.1306 186.446ZM77.2249 162.767C75.0999 165.909 73.1755 168.755 71.2479 171.601C68.0854 176.276 64.9061 180.944 61.7668 185.635C61.2685 186.376 60.7368 186.759 59.7045 186.783C50.1982 186.988 40.6953 187.252 31.1889 187.497C30.9195 187.502 30.6499 187.468 30.2237 187.444C30.3928 187.067 30.4869 186.748 30.6687 186.478C35.6114 179.164 40.576 171.863 45.4968 164.537C46.0222 163.754 46.6346 163.453 47.6125 163.437C51.4582 163.376 55.304 163.256 59.1498 163.163C64.5343 163.029 69.919 162.898 75.3037 162.768C75.8333 162.756 76.3662 162.767 77.2249 162.767" fill="#181818"/>
<path fill-rule="evenodd" clip-rule="evenodd" d="M138.083 145.087C143.002 137.824 147.899 130.639 152.831 123.29C152.328 123.246 152.118 123.208 151.909 123.214C143.173 123.425 134.436 123.654 125.699 123.838C124.772 123.858 124.35 124.282 123.922 124.916C119.503 131.47 115.06 138.009 110.633 144.557C110.419 144.874 110.281 145.233 109.997 145.791C119.515 145.553 128.785 145.32 138.083 145.087V145.087ZM154.92 122.212C152.572 125.682 150.391 128.911 148.205 132.138C145.298 136.432 142.374 140.716 139.5 145.026C138.995 145.782 138.437 146.164 137.425 146.186C127.917 146.39 118.412 146.636 108.906 146.865C108.633 146.872 108.361 146.843 107.921 146.821C108.138 146.407 108.281 146.053 108.494 145.738C113.409 138.466 118.337 131.202 123.239 123.922C123.706 123.23 124.195 122.86 125.173 122.838C134.679 122.633 144.185 122.375 153.689 122.133C154.002 122.127 154.312 122.172 154.92 122.212Z" fill="#181818"/>
<path fill-rule="evenodd" clip-rule="evenodd" d="M152.821 285.927C149.824 286.019 147.135 286.116 144.445 286.182C138.346 286.329 132.247 286.468 126.148 286.589C125.223 286.606 124.53 286.725 123.968 287.57C119.522 294.223 115.007 300.842 110.523 307.477C110.345 307.74 110.266 308.065 110.089 308.489C110.707 308.489 111.141 308.498 111.576 308.486C119.983 308.278 128.388 308.05 136.798 307.882C137.824 307.86 138.36 307.482 138.86 306.739C143.24 300.222 147.653 293.725 152.052 287.219C152.275 286.891 152.458 286.54 152.821 285.927V285.927ZM154.92 284.964C152.603 288.394 150.451 291.582 148.294 294.767C145.357 299.103 142.402 303.426 139.498 307.779C138.993 308.536 138.436 308.918 137.423 308.939C127.915 309.143 118.411 309.388 108.906 309.618C108.633 309.624 108.361 309.597 107.921 309.575C108.138 309.161 108.281 308.807 108.494 308.491C113.409 301.219 118.343 293.957 123.233 286.672C123.754 285.897 124.352 285.616 125.339 285.593C134.735 285.385 144.13 285.13 153.525 284.894C153.89 284.884 154.257 284.928 154.92 284.964" fill="#181818"/>
<path fill-rule="evenodd" clip-rule="evenodd" d="M187.604 349.075C188.116 349.124 188.323 349.163 188.53 349.159C197.267 348.948 206.002 348.719 214.738 348.532C215.659 348.513 216.089 348.101 216.521 347.463C220.937 340.91 225.378 334.37 229.803 327.822C230.02 327.505 230.161 327.147 230.45 326.585C220.934 326.823 211.665 327.053 202.359 327.285C197.461 334.516 192.602 341.69 187.604 349.075V349.075ZM185.519 350.168C186.861 348.186 188.035 346.446 189.212 344.705C193.127 338.926 197.054 333.154 200.941 327.358C201.444 326.606 201.996 326.213 203.012 326.19C212.573 325.985 222.133 325.74 231.694 325.508C231.91 325.504 232.127 325.535 232.515 325.562C232.307 325.966 232.167 326.32 231.955 326.635C227.04 333.906 222.105 341.167 217.213 348.451C216.694 349.225 216.099 349.51 215.11 349.532C205.713 349.743 196.321 350.001 186.925 350.238C186.561 350.249 186.191 350.205 185.519 350.168" fill="#181818"/>
<path fill-rule="evenodd" clip-rule="evenodd" d="M308.343 286.029C307.774 285.996 307.515 285.961 307.255 285.967C298.573 286.178 289.89 286.407 281.208 286.593C280.295 286.612 279.854 287.006 279.419 287.649C274.975 294.247 270.501 300.828 266.045 307.42C265.859 307.695 265.753 308.018 265.502 308.543C274.986 308.305 284.254 308.074 293.573 307.842C298.462 300.62 303.323 293.444 308.343 286.029V286.029ZM310.379 284.99C309.795 285.864 309.346 286.542 308.888 287.215C304.255 294.059 299.61 300.895 294.999 307.752C294.5 308.495 293.974 308.918 292.943 308.939C283.381 309.142 273.821 309.388 264.262 309.618C264.042 309.624 263.826 309.598 263.452 309.576C263.61 309.223 263.699 308.909 263.877 308.645C268.847 301.288 273.831 293.938 278.798 286.577C279.196 285.987 279.607 285.621 280.46 285.603C290.132 285.384 299.801 285.126 309.472 284.884C309.678 284.88 309.885 284.93 310.379 284.99" fill="#181818"/>
<path fill-rule="evenodd" clip-rule="evenodd" d="M92.4793 91.7031C92.2348 92.0382 92.0342 92.2742 91.8806 92.5307C87.7654 99.4238 83.6677 106.324 79.5273 113.204C79.096 113.921 79.1838 114.456 79.5881 115.133C83.696 121.973 87.7685 128.828 91.8588 135.676C92.0249 135.951 92.2612 136.19 92.5263 136.527C92.7539 136.198 92.91 135.995 93.0384 135.781C97.1525 128.888 101.248 121.984 105.396 115.109C105.864 114.332 105.757 113.765 105.327 113.048C101.274 106.295 97.256 99.5258 93.2241 92.7638C93.0216 92.4228 92.7664 92.1096 92.4793 91.7031V91.7031ZM92.4962 89.4694C92.846 90.0129 93.1262 90.4238 93.3788 90.8464C97.7511 98.1737 102.098 105.51 106.511 112.815C107.08 113.759 107.091 114.463 106.521 115.407C102.111 122.714 97.7624 130.052 93.3915 137.378C93.1344 137.811 92.8523 138.233 92.4856 138.814C92.1252 138.252 91.843 137.84 91.5892 137.414C87.1949 130.043 82.8164 122.665 78.3876 115.31C77.8862 114.475 77.8236 113.856 78.3482 112.986C82.8371 105.548 87.2607 98.0776 91.7082 90.6191C91.9138 90.2737 92.1627 89.9532 92.4962 89.4694Z" fill="#181818"/>
<path fill-rule="evenodd" clip-rule="evenodd" d="M202.358 1.7772C197.458 9.01569 192.583 16.2163 187.551 23.65C188.255 23.65 188.621 23.6587 188.987 23.6485C197.502 23.4387 206.018 23.2158 214.536 23.0322C215.47 23.0118 216.019 22.719 216.508 21.989C220.94 15.3858 225.418 8.80588 229.872 2.21576C230.06 1.93893 230.177 1.61983 230.444 1.08074C220.952 1.31677 211.691 1.54553 202.358 1.7772ZM185.525 24.6568C187.382 21.9103 189.07 19.4043 190.767 16.8996C194.162 11.8831 197.575 6.87823 200.944 1.84713C201.448 1.09239 202.003 0.706285 203.017 0.68443C212.578 0.477533 222.138 0.232761 231.697 0.00109481C231.914 -0.00473328 232.132 0.0287597 232.515 0.0549861C232.307 0.460038 232.167 0.815572 231.954 1.13175C227.038 8.40229 222.109 15.6641 217.206 22.9419C216.739 23.6355 216.248 24.0041 215.269 24.0259C205.766 24.2328 196.261 24.4951 186.756 24.737C186.447 24.7457 186.134 24.6991 185.525 24.6568Z" fill="#181818"/>
<path fill-rule="evenodd" clip-rule="evenodd" d="M385.911 1.22636C385.376 1.18265 385.015 1.12147 384.654 1.13021C376.082 1.33857 367.513 1.56149 358.94 1.75236C358.128 1.76839 357.656 2.02773 357.236 2.65133C352.739 9.33615 348.209 16.0035 343.7 22.6825C343.52 22.9447 343.44 23.2638 343.271 23.6514C343.769 23.6514 344.098 23.6587 344.425 23.6499C352.941 23.4401 361.458 23.2143 369.977 23.0365C370.99 23.0147 371.544 22.6534 372.054 21.8972C376.43 15.377 380.846 8.883 385.246 2.3774C385.466 2.05539 385.638 1.70281 385.911 1.22636V1.22636ZM341.017 24.6509C342.458 22.5149 343.746 20.6047 345.038 18.696C348.837 13.0865 352.649 7.48429 356.421 1.86018C356.924 1.10981 357.467 0.707666 358.487 0.684354C368.05 0.478914 377.61 0.232686 387.169 0.00101897C387.384 -0.00480912 387.604 0.0257656 387.999 0.050535C387.792 0.457044 387.655 0.808199 387.445 1.12C382.531 8.39055 377.603 15.6538 372.697 22.9316C372.234 23.6179 371.755 24.0054 370.77 24.0258C361.211 24.2342 351.651 24.4994 342.092 24.7427C341.834 24.75 341.574 24.7005 341.017 24.6509Z" fill="#181818"/>
<path fill-rule="evenodd" clip-rule="evenodd" d="M110.034 82.6229C110.161 82.875 110.248 83.1038 110.382 83.3019C114.924 90.0246 119.484 96.7357 124.004 103.47C124.476 104.172 125.051 104.344 125.889 104.363C134.353 104.554 142.817 104.777 151.28 104.982C151.698 104.993 152.116 104.942 152.709 104.91C152.407 104.395 152.205 103.999 151.954 103.632C147.639 97.2515 143.289 90.893 139.023 84.4865C138.337 83.4535 137.569 83.0775 136.272 83.0571C129.62 82.9566 122.971 82.7657 116.32 82.6302C114.291 82.5894 112.26 82.6229 110.034 82.6229ZM107.839 81.3568C118.271 81.6176 128.477 81.8741 138.739 82.1305C144.107 90.0582 149.446 97.945 154.921 106.033C154.222 106.065 153.808 106.112 153.397 106.1C144.054 105.877 134.714 105.644 125.37 105.428C124.499 105.408 123.853 105.253 123.334 104.48C118.304 96.979 113.225 89.5059 108.16 82.0241C108.079 81.9017 108.032 81.7604 107.839 81.3568Z" fill="#181818"/>
<path fill-rule="evenodd" clip-rule="evenodd" d="M32.1574 104.984C32.8752 104.984 33.3046 104.994 33.7341 104.984C42.1432 104.774 50.5524 104.541 58.9617 104.379C60.0636 104.357 60.6259 103.971 61.1619 103.171C65.4796 96.7358 69.8394 90.3234 74.1815 83.8994C74.4574 83.4929 74.6862 83.0602 75.0404 82.4643C74.3758 82.4643 73.9515 82.4541 73.5264 82.4657C65.1173 82.6741 56.7081 82.8999 48.2988 83.0718C47.2208 83.0951 46.6315 83.4696 46.0861 84.2826C41.7138 90.8057 37.2914 97.3011 32.889 103.807C32.6934 104.097 32.5191 104.4 32.1574 104.984ZM77.1636 81.4414C76.8288 81.9587 76.6201 82.2938 76.3975 82.6216C71.5332 89.8047 66.6582 96.982 61.82 104.181C61.2903 104.969 60.745 105.42 59.6418 105.443C50.2452 105.632 40.8488 105.877 31.4504 106.103C31.0856 106.112 30.7189 106.072 30.1609 106.049C30.4524 105.535 30.6437 105.141 30.8881 104.779C35.7462 97.5911 40.6118 90.4079 45.4655 83.2204C45.9118 82.559 46.3337 82.0985 47.3629 82.0781C56.9808 81.8829 66.5967 81.6192 76.2126 81.3788C76.4277 81.373 76.6432 81.405 77.1636 81.4414" fill="#181818"/>
<path fill-rule="evenodd" clip-rule="evenodd" d="M385.961 64.403C385.781 64.014 385.725 63.8231 385.617 63.6643C381.044 56.8994 376.46 50.1431 371.905 43.3694C371.478 42.7327 370.964 42.5244 370.168 42.5054C361.54 42.3116 352.909 42.0843 344.279 41.8745C343.979 41.8672 343.676 41.9343 343.188 41.9853C343.461 42.4209 343.632 42.7167 343.825 43.0008C348.256 49.5516 352.704 56.0892 357.098 62.6589C357.663 63.504 358.324 63.7721 359.36 63.7925C367.718 63.9717 376.072 64.1932 384.426 64.4016C384.861 64.4118 385.301 64.403 385.961 64.403V64.403ZM388.133 65.4841C384.313 65.4084 380.801 65.3559 377.29 65.267C371.027 65.1097 364.765 64.9159 358.499 64.7789C357.582 64.76 357.011 64.5181 356.515 63.7809C351.592 56.455 346.628 49.1524 341.683 41.8396C341.493 41.5613 341.368 41.248 341.119 40.7716C341.854 40.7716 342.384 40.7599 342.912 40.773C352.089 40.9945 361.267 41.2291 370.443 41.4287C371.468 41.4505 372.136 41.7026 372.705 42.5535C377.614 49.8881 382.584 57.1878 387.533 64.4992C387.699 64.7425 387.84 64.9989 388.133 65.4841" fill="#181818"/>
<path fill-rule="evenodd" clip-rule="evenodd" d="M74.9621 227.117C74.8053 226.784 74.7332 226.554 74.6016 226.355C70.0318 219.589 65.4495 212.831 60.8924 206.059C60.4974 205.472 60.0117 205.281 59.2814 205.264C50.6496 205.067 42.0209 204.841 33.3905 204.634C33.0508 204.625 32.7091 204.719 32.2421 204.781C32.5775 205.312 32.8094 205.699 33.0633 206.077C37.2382 212.241 41.4004 218.415 45.5971 224.568C47.108 226.782 46.3106 226.465 49.4618 226.549C56.937 226.747 64.4122 226.932 71.8874 227.115C72.8602 227.139 73.8338 227.117 74.9621 227.117V227.117ZM77.0996 228.145C76.7047 228.199 76.4959 228.254 76.291 228.248C66.6198 228.006 56.9506 227.737 47.279 227.54C46.2103 227.52 45.8585 226.969 45.428 226.334C41.6888 220.807 37.9496 215.281 34.2073 209.754C33.1429 208.182 32.0698 206.614 31.0103 205.038C30.7314 204.625 30.4882 204.193 30.1247 203.598C30.7709 203.566 31.236 203.512 31.698 203.524C40.9848 203.744 50.2704 203.98 59.5572 204.187C60.5194 204.207 61.1557 204.446 61.6915 205.248C66.6657 212.661 71.6898 220.049 76.6984 227.445C76.8112 227.611 76.899 227.794 77.0996 228.145Z" fill="#181818"/>
<path fill-rule="evenodd" clip-rule="evenodd" d="M187.758 204.815C187.96 205.149 188.101 205.408 188.266 205.653C192.726 212.244 197.202 218.828 201.632 225.436C202.154 226.211 202.754 226.52 203.742 226.542C212.207 226.726 220.674 226.95 229.137 227.155C229.54 227.166 229.948 227.104 230.474 227.068C230.27 226.696 230.168 226.471 230.03 226.265C225.512 219.588 220.977 212.92 216.494 206.224C215.985 205.465 215.383 205.275 214.486 205.253C208.99 205.131 203.495 204.933 197.998 204.827C194.653 204.761 191.303 204.815 187.758 204.815V204.815ZM232.628 228.269C222.154 228.003 211.946 227.745 201.698 227.486C196.327 219.548 190.99 211.664 185.482 203.527C186.403 203.527 186.986 203.515 187.567 203.53C196.686 203.75 205.808 203.977 214.931 204.193C215.837 204.213 216.552 204.301 217.126 205.157C222.115 212.62 227.173 220.047 232.211 227.485C232.32 227.648 232.393 227.83 232.628 228.269Z" fill="#181818"/>
<path fill-rule="evenodd" clip-rule="evenodd" d="M265.424 227.155C266.099 227.155 266.571 227.166 267.043 227.154C275.397 226.946 283.753 226.723 292.109 226.548C293.168 226.526 293.789 226.197 294.343 225.371C298.684 218.888 303.079 212.435 307.452 205.972C307.699 205.605 307.896 205.21 308.192 204.703C307.595 204.674 307.171 204.628 306.749 204.64C298.286 204.845 289.822 205.073 281.356 205.252C280.406 205.271 279.876 205.573 279.393 206.292C274.986 212.856 270.543 219.398 266.114 225.949C265.894 226.274 265.722 226.627 265.424 227.155V227.155ZM263.261 228.167C265.742 224.502 268.07 221.061 270.398 217.619C273.191 213.497 275.996 209.381 278.766 205.246C279.2 204.595 279.663 204.215 280.566 204.196C290.236 203.986 299.908 203.745 309.578 203.518C309.737 203.514 309.896 203.557 310.218 203.601C310.028 203.987 309.896 204.346 309.684 204.66C304.769 211.932 299.839 219.196 294.937 226.475C294.466 227.171 293.956 227.517 292.99 227.536C283.484 227.744 273.979 228.003 264.475 228.242C264.159 228.251 263.845 228.204 263.261 228.167" fill="#181818"/>
<path fill-rule="evenodd" clip-rule="evenodd" d="M343.188 204.637C343.408 205.07 343.478 205.253 343.587 205.417C348.134 212.135 352.701 218.844 357.215 225.582C357.73 226.35 358.37 226.514 359.248 226.535C367.715 226.733 376.178 226.951 384.643 227.155C385.039 227.166 385.441 227.093 385.959 227.047C385.752 226.682 385.644 226.454 385.505 226.249C380.987 219.572 376.453 212.903 371.97 206.208C371.457 205.437 370.836 205.277 369.952 205.256C361.543 205.067 353.132 204.847 344.72 204.638C344.289 204.628 343.854 204.637 343.188 204.637V204.637ZM388.063 228.161C387.591 228.199 387.281 228.251 386.973 228.244C377.468 228.005 367.962 227.751 358.455 227.528C357.618 227.508 357.058 227.333 356.583 226.625C351.576 219.171 346.526 211.74 341.493 204.3C341.383 204.139 341.317 203.952 341.161 203.639C341.609 203.589 341.955 203.511 342.3 203.518C351.751 203.741 361.201 203.977 370.653 204.196C371.475 204.214 372.073 204.378 372.553 205.09C377.59 212.587 382.668 220.061 387.732 227.541C387.837 227.696 387.909 227.869 388.063 228.161" fill="#181818"/>
<path fill-rule="evenodd" clip-rule="evenodd" d="M152.79 367.458C152.147 367.424 151.77 367.379 151.398 367.389C142.877 367.598 134.358 367.829 125.837 368.004C124.869 368.023 124.367 368.371 123.894 369.073C119.482 375.635 115.04 382.176 110.611 388.727C110.392 389.051 110.235 389.406 109.987 389.861C110.467 389.884 110.783 389.922 111.097 389.915C119.672 389.703 128.246 389.472 136.821 389.297C137.877 389.275 138.374 388.823 138.866 388.094C143.02 381.916 147.207 375.757 151.38 369.593C151.807 368.961 152.218 368.322 152.79 367.458V367.458ZM107.834 390.913C108.129 390.439 108.323 390.103 108.544 389.776C113.407 382.592 118.284 375.419 123.12 368.219C123.687 367.373 124.295 366.949 125.449 366.926C134.682 366.744 143.913 366.499 153.143 366.276C153.623 366.265 154.105 366.275 154.788 366.275C154.532 366.77 154.39 367.127 154.177 367.445C149.291 374.674 144.383 381.892 139.525 389.137C138.973 389.956 138.372 390.273 137.299 390.295C127.903 390.495 118.509 390.754 109.113 390.99C108.75 390.999 108.389 390.948 107.834 390.913" fill="#181818"/>
<path fill-rule="evenodd" clip-rule="evenodd" d="M187.722 367.483C187.945 367.866 188.077 368.126 188.241 368.368C192.729 375.002 197.232 381.629 201.693 388.279C202.187 389.018 202.775 389.271 203.693 389.291C212.267 389.482 220.841 389.705 229.417 389.915C229.717 389.922 230.02 389.875 230.378 389.851C230.304 389.59 230.299 389.434 230.221 389.318C225.594 382.465 220.955 375.623 216.344 368.763C215.935 368.153 215.407 368.035 214.703 368.019C206.127 367.818 197.551 367.595 188.979 367.387C188.619 367.378 188.257 367.439 187.722 367.483V367.483ZM232.578 390.917C232.101 390.954 231.79 391.005 231.48 390.996C221.974 390.757 212.469 390.504 202.964 390.282C202.12 390.262 201.566 390.078 201.093 389.374C196.114 381.964 191.091 374.575 186.084 367.179C185.946 366.976 185.848 366.748 185.655 366.387C186.126 366.338 186.474 366.263 186.82 366.272C196.272 366.495 205.723 366.731 215.173 366.948C215.999 366.967 216.593 367.14 217.07 367.848C222.109 375.345 227.186 382.819 232.251 390.299C232.355 390.455 232.424 390.627 232.578 390.917" fill="#181818"/>
<path fill-rule="evenodd" clip-rule="evenodd" d="M230.405 163.989C229.991 163.938 229.739 163.872 229.487 163.878C220.751 164.091 212.015 164.318 203.279 164.506C202.473 164.522 202.114 164.881 201.753 165.418C197.242 172.096 192.718 178.766 188.207 185.444C188.031 185.704 187.955 186.022 187.791 186.405C188.295 186.405 188.623 186.413 188.952 186.404C197.468 186.193 205.983 185.967 214.502 185.79C215.523 185.769 216.067 185.396 216.574 184.641C220.952 178.124 225.368 171.628 229.77 165.124C229.985 164.801 230.15 164.448 230.405 163.989V163.989ZM232.621 162.812C232.227 163.435 231.97 163.865 231.687 164.282C226.913 171.338 222.112 178.38 217.389 185.464C216.728 186.459 215.991 186.765 214.759 186.791C205.529 186.982 196.3 187.243 187.069 187.478C186.652 187.488 186.235 187.447 185.623 187.421C185.93 186.901 186.134 186.513 186.381 186.149C191.24 178.964 196.114 171.788 200.95 164.589C201.461 163.832 202.025 163.46 203.032 163.438C212.536 163.231 222.04 162.987 231.546 162.756C231.814 162.749 232.082 162.781 232.621 162.812" fill="#181818"/>
<path fill-rule="evenodd" clip-rule="evenodd" d="M343.196 367.397C343.405 367.815 343.474 368 343.581 368.16C348.127 374.88 352.694 381.59 357.208 388.325C357.722 389.09 358.354 389.268 359.237 389.289C367.702 389.485 376.167 389.703 384.633 389.909C385.035 389.918 385.437 389.851 385.959 389.81C385.752 389.443 385.648 389.216 385.508 389.011C380.994 382.334 376.459 375.665 371.975 368.97C371.463 368.205 370.855 368.029 369.961 368.01C361.607 367.822 353.253 367.603 344.897 367.398C344.409 367.386 343.918 367.397 343.196 367.397ZM341.116 366.278C341.853 366.278 342.382 366.266 342.912 366.279C352.086 366.5 361.264 366.731 370.441 366.944C371.357 366.965 372.056 367.08 372.622 367.93C377.614 375.393 382.672 382.819 387.708 390.259C387.816 390.418 387.885 390.598 388.04 390.903C387.57 390.941 387.212 391.002 386.854 390.993C377.46 390.757 368.065 390.504 358.669 390.288C357.719 390.266 357.061 390.109 356.515 389.292C351.598 381.964 346.63 374.663 341.684 367.348C341.497 367.07 341.368 366.758 341.116 366.278" fill="#181818"/>
<path fill-rule="evenodd" clip-rule="evenodd" d="M187.697 41.8876C187.926 42.3291 188.002 42.5141 188.112 42.6758C192.66 49.3956 197.219 56.1067 201.746 62.8381C202.21 63.5317 202.767 63.7604 203.617 63.7808C212.193 63.9746 220.767 64.1975 229.343 64.4044C229.681 64.4117 230.023 64.3272 230.45 64.2733C230.283 63.96 230.206 63.775 230.095 63.6103C225.551 56.8876 220.984 50.178 216.476 43.4393C215.956 42.6627 215.324 42.5229 214.448 42.5025C206.093 42.3116 197.738 42.096 189.383 41.8876C188.899 41.8774 188.414 41.8876 187.697 41.8876ZM185.657 40.805C187.081 40.805 188.287 40.7817 189.491 40.8094C197.896 41.0134 206.304 41.2538 214.712 41.4112C216.032 41.4359 216.765 41.8657 217.439 42.8726C222.231 50.0382 227.09 57.1659 231.925 64.3068C232.124 64.6011 232.305 64.9071 232.575 65.3369C232.14 65.3967 231.793 65.4943 231.45 65.4855C221.943 65.2495 212.437 64.9989 202.932 64.7701C202.171 64.7512 201.615 64.6346 201.165 63.9688C196.126 56.4724 191.052 48.9979 185.989 41.5161C185.882 41.3558 185.826 41.1693 185.657 40.805" fill="#181818"/>
<path fill-rule="evenodd" clip-rule="evenodd" d="M109.903 64.4101C110.476 64.4101 110.749 64.416 111.022 64.4087C119.597 64.1974 128.171 63.9686 136.746 63.7894C137.758 63.7661 138.321 63.4048 138.832 62.6457C143.182 56.1678 147.57 49.7146 151.946 43.2483C152.197 42.8797 152.418 42.4936 152.757 41.9501C152.079 41.9225 151.611 41.8773 151.144 41.8875C142.732 42.0929 134.324 42.3231 125.912 42.4936C124.886 42.514 124.348 42.8841 123.844 43.6345C119.495 50.1124 115.109 56.5699 110.736 63.0347C110.486 63.4048 110.273 63.7982 109.903 64.4101V64.4101ZM107.784 65.4913C108.146 64.9099 108.345 64.569 108.567 64.2382C113.4 57.0988 118.257 49.9696 123.046 42.804C123.695 41.8336 124.395 41.4387 125.655 41.4125C134.721 41.2391 143.787 40.9943 152.853 40.7758C153.437 40.7612 154.023 40.7743 154.828 40.7743C154.504 41.3382 154.312 41.7316 154.068 42.0944C149.237 49.2382 144.389 56.3703 139.584 63.5272C139.015 64.3752 138.415 64.7686 137.261 64.7933C127.865 64.9842 118.47 65.2494 109.075 65.4883C108.75 65.4971 108.426 65.4913 107.784 65.4913" fill="#181818"/>
<path fill-rule="evenodd" clip-rule="evenodd" d="M32.2108 41.8877C32.4408 42.3277 32.5148 42.5112 32.6245 42.6759C37.1722 49.3942 41.7326 56.1053 46.2586 62.8382C46.7223 63.5303 47.279 63.7605 48.1297 63.7809C56.7049 63.9747 65.2803 64.1991 73.8556 64.4045C74.1942 64.4118 74.5358 64.3273 74.9651 64.2763C74.799 63.9615 74.7226 63.7765 74.6092 63.6104C70.0644 56.8891 65.4997 50.181 60.9926 43.4394C60.4724 42.6599 59.838 42.5244 58.963 42.5025C50.6089 42.3116 42.253 42.096 33.8969 41.8891C33.4131 41.8789 32.9285 41.8877 32.2108 41.8877V41.8877ZM77.1636 65.4856C73.2883 65.4084 69.7216 65.3545 66.1567 65.2627C59.947 65.1082 53.74 64.9144 47.531 64.7789C46.6139 64.76 46.039 64.5181 45.5438 63.7838C40.6231 56.455 35.6585 49.1538 30.7127 41.8396C30.5214 41.5613 30.396 41.2451 30.1484 40.7701C30.885 40.7701 31.4147 40.7599 31.9432 40.773C41.1183 40.9945 50.2955 41.2291 59.4725 41.4287C60.4974 41.4505 61.165 41.7026 61.7336 42.5535C66.6437 49.8881 71.6134 57.1878 76.5618 64.5006C76.7266 64.7425 76.8677 65.0004 77.1636 65.4856" fill="#181818"/>
<path fill-rule="evenodd" clip-rule="evenodd" d="M32.2641 267.664C32.8051 267.698 33.1761 267.75 33.5441 267.741C42.0649 267.532 50.5825 267.3 59.1027 267.123C60.0574 267.102 60.577 266.78 61.0554 266.069C65.4652 259.509 69.9095 252.967 74.3383 246.416C74.5577 246.092 74.7207 245.738 74.9808 245.272C74.5013 245.246 74.191 245.205 73.8806 245.214C65.3073 245.424 56.7332 245.654 48.1579 245.83C47.1142 245.852 46.6013 246.28 46.105 247.019C41.7483 253.493 37.3592 259.947 32.985 266.41C32.7391 266.776 32.5461 267.173 32.2641 267.664ZM30.0857 268.8C30.5069 268.134 30.7659 267.7 31.0511 267.281C35.8278 260.223 40.62 253.175 45.3697 246.104C45.9357 245.262 46.5217 244.849 47.6845 244.828C57.0278 244.643 66.3679 244.382 75.7111 244.152C76.1229 244.141 76.5386 244.191 77.1278 244.222C76.8802 244.618 76.7359 244.87 76.5711 245.112C71.6208 252.423 66.6593 259.727 61.7355 267.055C61.2232 267.82 60.651 268.168 59.6512 268.19C50.2515 268.39 40.8551 268.632 31.4585 268.857C31.0919 268.866 30.722 268.826 30.0857 268.8" fill="#181818"/>
<path fill-rule="evenodd" clip-rule="evenodd" d="M386.03 245.209C385.455 245.209 385.184 245.203 384.911 245.209C376.339 245.422 367.764 245.649 359.19 245.831C358.179 245.853 357.614 246.21 357.103 246.969C352.698 253.532 348.251 260.072 343.82 266.621C343.628 266.906 343.459 267.203 343.177 267.668C343.849 267.697 344.318 267.744 344.785 267.732C353.139 267.529 361.493 267.294 369.847 267.138C371.011 267.115 371.609 266.701 372.173 265.863C376.465 259.471 380.797 253.102 385.11 246.722C385.391 246.308 385.63 245.871 386.03 245.209V245.209ZM388.149 244.21C385.043 248.805 382.085 253.184 379.124 257.559C377.024 260.664 374.888 263.747 372.839 266.876C372.24 267.789 371.555 268.187 370.361 268.203C365.085 268.274 359.81 268.431 354.535 268.559C350.688 268.653 346.842 268.755 342.994 268.847C342.45 268.86 341.906 268.848 341.115 268.848C341.399 268.337 341.578 267.948 341.819 267.592C346.705 260.362 351.605 253.138 356.478 245.901C356.945 245.205 357.452 244.857 358.423 244.836C367.93 244.634 377.435 244.376 386.943 244.138C387.257 244.13 387.577 244.173 388.149 244.21" fill="#181818"/>
<path fill-rule="evenodd" clip-rule="evenodd" d="M92.4543 299.333C92.7082 299.004 92.8504 298.854 92.9526 298.683C97.118 291.703 101.268 284.714 105.461 277.744C105.905 277.007 105.727 276.474 105.333 275.818C101.287 269.064 97.2673 262.296 93.2347 255.532C93.0279 255.188 92.774 254.866 92.4574 254.41C92.1157 254.945 91.8336 255.365 91.5748 255.796C87.6451 262.382 83.7473 268.983 79.7605 275.542C79.14 276.562 79.212 277.299 79.8013 278.274C83.7743 284.839 87.6809 291.435 91.6112 298.019C91.845 298.41 92.1032 298.789 92.4543 299.333V299.333ZM92.5014 301.538C92.1867 301.082 91.9339 300.76 91.7284 300.416C87.2545 292.914 82.7977 285.403 78.2969 277.913C77.8487 277.168 77.8381 276.605 78.2874 275.856C82.8134 268.322 87.2985 260.767 91.7993 253.221C91.9779 252.923 92.2098 252.652 92.5139 252.236C92.8523 252.771 93.1344 253.189 93.3902 253.619C97.7606 260.945 102.108 268.283 106.521 275.588C107.094 276.535 107.078 277.243 106.511 278.18C102.1 285.487 97.7511 292.823 93.3801 300.149C93.1219 300.582 92.8417 301.001 92.5014 301.538" fill="#181818"/>
<path fill-rule="evenodd" clip-rule="evenodd" d="M247.98 254.4C247.714 254.776 247.553 254.974 247.425 255.188C243.285 262.125 239.159 269.069 234.992 275.992C234.55 276.722 234.699 277.256 235.097 277.921C239.175 284.719 243.222 291.53 247.284 298.334C247.464 298.635 247.687 298.917 247.969 299.32C248.285 298.851 248.555 298.488 248.783 298.103C252.766 291.431 256.718 284.742 260.744 278.091C261.295 277.182 261.253 276.513 260.72 275.63C256.729 269.019 252.796 262.379 248.84 255.749C248.608 255.357 248.351 254.977 247.98 254.4V254.4ZM247.964 301.574C247.603 301.001 247.322 300.583 247.066 300.153C242.694 292.828 238.345 285.49 233.934 278.185C233.371 277.247 233.345 276.541 233.92 275.592C238.333 268.287 242.681 260.949 247.051 253.624C247.308 253.194 247.587 252.774 247.964 252.181C248.337 252.77 248.617 253.186 248.873 253.615C253.245 260.941 257.593 268.278 262.006 275.584C262.575 276.529 262.566 277.236 261.999 278.174C257.589 285.481 253.241 292.819 248.869 300.145C248.613 300.576 248.33 300.997 247.964 301.574" fill="#181818"/>
<path fill-rule="evenodd" clip-rule="evenodd" d="M32.0866 123.254C37.1127 130.677 41.9708 137.851 46.7881 144.968C51.0696 145.461 73.4544 145.869 74.8617 145.461C74.6204 145.065 74.4041 144.673 74.1521 144.302C69.8375 137.924 65.4965 131.561 61.2296 125.159C60.5746 124.176 59.8423 123.836 58.6012 123.813C50.8532 123.669 43.1054 123.446 35.3576 123.256C34.3796 123.233 33.4017 123.254 32.0866 123.254V123.254ZM77.1466 146.853C76.3944 146.853 75.8677 146.865 75.3432 146.851C66.1673 146.629 56.9902 146.397 47.815 146.186C46.8271 146.164 46.0974 145.996 45.5106 145.12C40.573 137.744 35.575 130.402 30.5997 123.048C30.4588 122.843 30.3521 122.62 30.1452 122.255C30.6749 122.207 31.0793 122.133 31.4836 122.143C40.8236 122.378 50.1638 122.631 59.5039 122.837C60.5444 122.86 61.1869 123.103 61.7574 123.954C66.579 131.161 71.461 138.334 76.3222 145.518C76.573 145.885 76.7892 146.273 77.1466 146.853" fill="#181818"/>
<path fill-rule="evenodd" clip-rule="evenodd" d="M265.422 389.908C266.095 389.908 266.568 389.918 267.043 389.906C275.397 389.699 283.753 389.475 292.109 389.302C293.168 389.278 293.789 388.95 294.343 388.123C298.685 381.642 303.079 375.189 307.452 368.724C307.699 368.358 307.896 367.964 308.19 367.455C307.596 367.428 307.173 367.382 306.749 367.392C298.284 367.599 289.821 367.828 281.354 368.004C280.404 368.023 279.876 368.328 279.393 369.046C274.986 375.61 270.543 382.152 266.112 388.703C265.892 389.028 265.722 389.382 265.422 389.908V389.908ZM310.27 366.33C310.015 366.798 309.861 367.153 309.642 367.472C304.756 374.702 299.853 381.923 294.985 389.162C294.482 389.911 293.934 390.269 292.913 390.292C283.406 390.498 273.903 390.759 264.397 390.999C264.127 391.006 263.858 390.978 263.418 390.961C263.602 390.582 263.705 390.273 263.885 390.008C268.827 382.696 273.789 375.388 278.721 368.068C279.186 367.379 279.664 366.962 280.642 366.942C290.15 366.739 299.653 366.496 309.159 366.269C309.472 366.262 309.785 366.302 310.27 366.33" fill="#181818"/>
<path fill-rule="evenodd" clip-rule="evenodd" d="M343.177 104.904C343.661 104.956 343.878 105.001 344.091 104.996C352.831 104.781 361.57 104.55 370.31 104.359C371.163 104.341 371.572 103.974 371.97 103.384C376.449 96.743 380.947 90.1151 385.433 83.4783C385.62 83.203 385.72 82.8766 385.906 82.4803C385.1 82.4803 384.444 82.4657 383.789 82.4817C375.711 82.6799 367.633 82.9072 359.553 83.0572C358.295 83.082 357.589 83.4681 356.939 84.4429C352.669 90.8465 348.323 97.2093 344.005 103.587C343.753 103.958 343.526 104.344 343.177 104.904V104.904ZM341.126 106.04C341.427 105.52 341.623 105.13 341.869 104.764C346.726 97.5765 351.593 90.3933 356.446 83.2029C356.896 82.5356 357.338 82.1 358.354 82.0781C367.971 81.8829 377.587 81.6206 387.203 81.3788C387.416 81.3744 387.633 81.4094 388.003 81.4385C387.819 81.8057 387.705 82.1087 387.525 82.3754C382.579 89.6896 377.618 96.9966 372.689 104.318C372.219 105.019 371.725 105.411 370.759 105.431C361.251 105.634 351.744 105.877 342.239 106.106C341.931 106.112 341.622 106.069 341.126 106.04" fill="#181818"/>
<path fill-rule="evenodd" clip-rule="evenodd" d="M74.9871 389.899C74.8085 389.516 74.752 389.326 74.6424 389.166C70.0706 382.402 65.4872 375.645 60.9312 368.872C60.5037 368.235 59.9834 368.03 59.1916 368.014C50.617 367.821 42.0429 367.595 33.4677 367.387C33.1135 367.378 32.7561 367.445 32.2171 367.493C32.4897 367.927 32.6621 368.225 32.8564 368.513C37.2882 375.062 41.7377 381.603 46.13 388.172C46.6973 389.019 47.3618 389.278 48.3961 389.302C56.5859 389.475 64.7756 389.693 72.9654 389.896C73.5672 389.912 74.169 389.899 74.9871 389.899V389.899ZM29.9929 366.278C30.863 366.278 31.3895 366.266 31.9162 366.279C41.0913 366.5 50.2672 366.729 59.4444 366.947C60.3482 366.968 61.0666 367.05 61.6414 367.911C66.6312 375.375 71.6898 382.8 76.7247 390.24C76.8351 390.402 76.9084 390.584 77.1203 390.981C66.7138 390.802 56.4836 390.508 46.2021 390.223C40.8394 382.301 35.503 374.417 29.9929 366.278Z" fill="#181818"/>
<path fill-rule="evenodd" clip-rule="evenodd" d="M403.455 254.477C403.255 254.719 403.099 254.862 403 255.034C398.808 262.058 394.633 269.093 390.414 276.102C389.987 276.812 390.224 277.307 390.577 277.896C394.668 284.742 398.749 291.595 402.839 298.441C403.003 298.714 403.24 298.948 403.492 299.262C403.701 298.98 403.837 298.825 403.942 298.652C408.08 291.715 412.206 284.772 416.369 277.847C416.786 277.152 416.797 276.617 416.375 275.916C412.291 269.121 408.246 262.309 404.186 255.503C403.985 255.168 403.73 254.859 403.455 254.477ZM403.42 301.524C403.072 300.977 402.815 300.597 402.582 300.204C398.187 292.835 393.813 285.453 389.377 278.103C388.836 277.205 388.841 276.536 389.379 275.646C393.835 268.249 398.235 260.824 402.658 253.409C402.863 253.065 403.099 252.736 403.414 252.267C403.72 252.679 403.98 252.972 404.174 253.297C408.65 260.801 413.114 268.307 417.596 275.805C417.982 276.449 418.198 276.981 417.747 277.728C413.114 285.436 408.522 293.162 403.918 300.885C403.815 301.055 403.669 301.207 403.42 301.524" fill="#181818"/>
<path fill-rule="evenodd" clip-rule="evenodd" d="M187.599 267.737C188.356 267.737 188.785 267.748 189.21 267.736C197.619 267.529 206.028 267.296 214.438 267.133C215.534 267.113 216.104 266.738 216.643 265.933C220.958 259.495 225.32 253.084 229.662 246.66C229.938 246.253 230.168 245.818 230.493 245.269C229.978 245.243 229.662 245.206 229.349 245.214C220.777 245.425 212.201 245.655 203.629 245.83C202.573 245.852 202.075 246.299 201.582 247.032C197.428 253.208 193.243 259.366 189.069 265.532C188.642 266.161 188.225 266.8 187.599 267.737V267.737ZM185.562 268.803C186.012 268.105 186.301 267.633 186.61 267.174C191.359 260.16 196.13 253.156 200.835 246.118C201.452 245.198 202.123 244.851 203.309 244.828C212.596 244.64 221.884 244.383 231.171 244.153C231.586 244.141 232.007 244.184 232.639 244.211C232.355 244.65 232.177 244.938 231.984 245.219C227.064 252.487 222.131 259.75 217.235 267.034C216.728 267.789 216.173 268.168 215.16 268.189C205.764 268.39 196.367 268.631 186.971 268.856C186.597 268.866 186.225 268.829 185.562 268.803" fill="#181818"/>
<path fill-rule="evenodd" clip-rule="evenodd" d="M265.393 64.4102C265.973 64.4102 266.245 64.416 266.518 64.4087C275.092 64.1975 283.666 63.9687 292.241 63.7895C293.26 63.7676 293.815 63.3932 294.322 62.637C298.701 56.1183 303.118 49.62 307.519 43.1115C307.741 42.7851 307.925 42.4412 308.213 41.9648C307.614 41.9298 307.198 41.8745 306.781 41.8846C298.315 42.0901 289.851 42.3232 281.386 42.4937C280.351 42.5141 279.823 42.8987 279.324 43.6433C274.974 50.1212 270.586 56.5773 266.218 63.0435C265.966 63.4151 265.756 63.8055 265.393 64.4102V64.4102ZM263.315 65.4316C263.572 65.0047 263.713 64.7482 263.877 64.5064C268.826 57.1936 273.788 49.891 278.711 42.5651C279.225 41.8001 279.797 41.4534 280.797 41.4315C290.195 41.229 299.59 40.9886 308.986 40.7642C309.354 40.7555 309.723 40.7919 310.263 40.8166C310.015 41.2843 309.865 41.6399 309.649 41.959C304.762 49.1887 299.866 56.4126 294.98 63.6409C294.537 64.298 294.121 64.7672 293.088 64.7876C283.471 64.9843 273.858 65.2524 264.243 65.4957C264.026 65.5015 263.811 65.4665 263.315 65.4316" fill="#181818"/>
<path fill-rule="evenodd" clip-rule="evenodd" d="M308.177 104.897C307.893 104.404 307.696 104.008 307.445 103.641C303.101 97.2195 298.729 90.8129 294.425 84.37C293.807 83.4477 293.109 83.0892 291.934 83.0659C283.691 82.8984 275.445 82.674 267.202 82.473C266.679 82.4598 266.152 82.4715 265.488 82.4715C265.626 82.8154 265.668 83.0091 265.774 83.1679C270.373 89.9722 274.985 96.7736 279.57 103.587C279.974 104.187 280.481 104.338 281.197 104.355C289.827 104.557 298.456 104.781 307.084 104.993C307.396 105 307.707 104.94 308.177 104.897V104.897ZM263.362 81.4588C263.782 81.4224 264.044 81.3758 264.304 81.3816C273.919 81.622 283.537 81.8712 293.154 82.0985C293.879 82.116 294.357 82.301 294.755 82.8926C299.801 90.386 304.871 97.8635 309.931 105.348C310.04 105.507 310.101 105.692 310.259 106.017C309.679 106.05 309.216 106.109 308.753 106.097C299.467 105.877 290.182 105.644 280.893 105.428C280.033 105.408 279.364 105.288 278.843 104.509C273.783 96.9645 268.677 89.4477 263.585 81.9222C263.529 81.8391 263.497 81.743 263.362 81.4588" fill="#181818"/>
<path fill-rule="evenodd" clip-rule="evenodd" d="M109.934 245.231C110.194 245.702 110.316 245.971 110.482 246.218C114.971 252.85 119.478 259.474 123.935 266.126C124.436 266.874 125.016 267.1 125.927 267.12C134.391 267.307 142.856 267.531 151.319 267.737C151.73 267.747 152.14 267.684 152.749 267.641C152.444 267.157 152.245 266.813 152.02 266.483C147.645 260.022 143.245 253.574 138.913 247.085C138.283 246.142 137.556 245.843 136.4 245.818C128.265 245.654 120.13 245.434 111.996 245.233C111.395 245.218 110.793 245.231 109.934 245.231ZM107.794 244.138C111.771 244.219 115.447 244.277 119.124 244.369C125.168 244.52 131.212 244.715 137.257 244.835C138.302 244.854 138.942 245.116 139.506 245.957C144.329 253.162 149.206 260.339 154.065 267.526C154.31 267.891 154.503 268.283 154.828 268.851C154.079 268.851 153.549 268.863 153.02 268.848C143.844 268.627 134.666 268.398 125.489 268.182C124.576 268.162 123.875 268.055 123.305 267.202C118.315 259.736 113.256 252.309 108.22 244.871C108.112 244.713 108.027 244.539 107.794 244.138Z" fill="#181818"/>
<path fill-rule="evenodd" clip-rule="evenodd" d="M230.53 82.5107C230.01 82.4844 229.744 82.4509 229.478 82.4582C220.849 82.671 212.22 82.8983 203.59 83.0804C202.621 83.1008 202.118 83.4782 201.647 84.179C197.205 90.7793 192.732 97.3636 188.276 103.957C188.09 104.231 187.986 104.551 187.783 104.974C188.491 104.974 189.037 104.985 189.579 104.972C197.768 104.771 205.955 104.537 214.146 104.389C215.404 104.366 216.11 103.999 216.757 103.026C221 96.6657 225.315 90.3451 229.603 84.0085C229.885 83.5903 230.134 83.1547 230.53 82.5107V82.5107ZM185.601 106.053C185.978 105.433 186.215 104.998 186.495 104.586C191.299 97.486 196.125 90.3961 200.892 83.2771C201.483 82.3941 202.151 82.1012 203.258 82.0779C212.546 81.8827 221.829 81.6321 231.116 81.399C231.543 81.3873 231.97 81.3961 232.621 81.3961C232.35 81.8536 232.196 82.1464 232.01 82.4247C227.091 89.6938 222.158 96.9571 217.261 104.238C216.765 104.975 216.251 105.414 215.213 105.435C205.707 105.632 196.202 105.877 186.695 106.106C186.423 106.112 186.15 106.081 185.601 106.053" fill="#181818"/>
<path fill-rule="evenodd" clip-rule="evenodd" d="M152.76 204.707C152.256 204.662 152.038 204.621 151.823 204.625C143.084 204.84 134.344 205.074 125.602 205.255C124.637 205.275 124.275 205.775 123.868 206.378C119.468 212.887 115.06 219.392 110.661 225.901C110.42 226.258 110.236 226.648 109.975 227.109C110.401 227.138 110.619 227.169 110.837 227.164C119.522 226.95 128.205 226.72 136.892 226.541C137.879 226.519 138.354 226.099 138.816 225.413C143.231 218.853 147.67 212.308 152.1 205.759C152.293 205.475 152.466 205.178 152.76 204.707V204.707ZM154.926 203.582C149.454 211.666 144.116 219.55 138.744 227.486C128.495 227.745 118.29 228.003 107.865 228.267C108.135 227.764 108.285 227.415 108.498 227.101C113.385 219.873 118.293 212.657 123.157 205.414C123.693 204.612 124.263 204.201 125.353 204.178C134.695 203.987 144.035 203.743 153.375 203.52C153.792 203.509 154.211 203.553 154.926 203.582" fill="#181818"/>
<path fill-rule="evenodd" clip-rule="evenodd" d="M247.964 136.562C248.199 136.238 248.365 136.043 248.494 135.83C252.634 128.894 256.758 121.949 260.924 115.027C261.359 114.304 261.247 113.768 260.844 113.097C256.765 106.3 252.721 99.4865 248.659 92.6822C248.47 92.3675 248.205 92.0892 247.91 91.7118C247.597 92.1912 247.362 92.5249 247.155 92.8731C243.174 99.5477 239.217 106.234 235.199 112.89C234.661 113.781 234.65 114.45 235.194 115.351C239.215 122.005 243.171 128.69 247.155 135.364C247.38 135.742 247.65 136.099 247.964 136.562V136.562ZM247.935 138.772C247.587 138.226 247.33 137.847 247.098 137.455C242.702 130.084 238.329 122.704 233.894 115.353C233.353 114.457 233.351 113.789 233.891 112.895C238.347 105.5 242.749 98.0747 247.17 90.6584C247.375 90.3146 247.613 89.9838 247.926 89.5117C248.234 89.9255 248.495 90.2169 248.688 90.5419C253.164 98.0426 257.626 105.551 262.108 113.048C262.492 113.69 262.713 114.223 262.266 114.97C257.63 122.679 253.04 130.407 248.433 138.128C248.33 138.299 248.186 138.45 247.935 138.772" fill="#181818"/>
<path fill-rule="evenodd" clip-rule="evenodd" d="M403.47 91.6579C403.215 92.0105 403.046 92.2043 402.919 92.4185C398.778 99.3554 394.653 106.298 390.484 113.222C390.049 113.947 390.171 114.484 390.573 115.152C394.678 121.993 398.752 128.848 402.842 135.695C403.006 135.967 403.245 136.199 403.51 136.525C403.796 136.094 404.004 135.803 404.186 135.498C408.189 128.78 412.174 122.05 416.22 115.351C416.762 114.453 416.756 113.784 416.216 112.891C412.198 106.234 408.239 99.5492 404.261 92.8731C404.052 92.5263 403.82 92.1926 403.47 91.6579V91.6579ZM403.423 138.772C403.075 138.227 402.818 137.848 402.586 137.457C398.189 130.087 393.814 122.706 389.382 115.353C388.843 114.46 388.836 113.792 389.375 112.898C393.832 105.5 398.232 98.0747 402.655 90.6613C402.86 90.316 403.096 89.9853 403.411 89.5117C403.719 89.9241 403.979 90.214 404.171 90.5389C408.647 98.0397 413.111 105.548 417.593 113.046C417.975 113.688 418.201 114.22 417.75 114.97C413.118 122.676 408.525 130.405 403.919 138.125C403.818 138.297 403.674 138.449 403.423 138.772" fill="#181818"/>
<path fill-rule="evenodd" clip-rule="evenodd" d="M265.427 245.243C265.679 245.697 265.799 245.967 265.965 246.212C270.451 252.846 274.959 259.469 279.417 266.121C279.918 266.865 280.491 267.1 281.405 267.118C289.87 267.305 298.334 267.531 306.799 267.737C307.208 267.747 307.62 267.687 308.233 267.648C307.9 267.116 307.675 266.732 307.425 266.363C303.108 259.985 298.754 253.627 294.497 247.216C293.799 246.165 293.003 245.839 291.727 245.813C283.867 245.658 276.009 245.438 268.149 245.246C267.327 245.225 266.505 245.243 265.427 245.243V245.243ZM310.294 268.803C308.657 268.803 307.238 268.832 305.825 268.799C297.637 268.6 289.45 268.367 281.263 268.205C279.976 268.179 279.196 267.823 278.507 266.787C273.786 259.699 268.982 252.656 264.209 245.598C263.93 245.189 263.663 244.774 263.31 244.233C263.755 244.185 264.012 244.128 264.267 244.136C273.882 244.373 283.498 244.627 293.115 244.847C293.924 244.867 294.402 245.119 294.824 245.744C299.839 253.195 304.881 260.629 309.915 268.072C310.024 268.233 310.097 268.417 310.294 268.803" fill="#181818"/>
<path fill-rule="evenodd" clip-rule="evenodd" d="M156.844 154.714C158.296 157.798 169.46 176.228 170.402 177.05C174.828 169.62 179.241 162.216 183.654 154.807C179.201 147.337 174.793 139.944 170.221 132.278C165.64 139.964 161.23 147.361 156.844 154.714V154.714ZM170.274 179.454C169.858 178.838 169.589 178.479 169.361 178.099C164.962 170.725 160.577 163.345 156.159 155.981C155.7 155.222 155.559 154.62 156.059 153.79C160.572 146.304 165.031 138.787 169.509 131.283C169.685 130.987 169.899 130.709 170.269 130.169C175.231 138.491 180.082 146.626 184.961 154.808C180.106 162.955 175.271 171.07 170.274 179.454Z" fill="#181818"/>
<path fill-rule="evenodd" clip-rule="evenodd" d="M325.709 177.346C330.303 169.634 334.732 162.206 339.104 154.868C336.259 149.464 326.582 133.523 325.536 132.56C321.107 139.992 316.695 147.396 312.274 154.814C316.721 162.273 321.129 169.668 325.709 177.346V177.346ZM310.968 154.814C315.824 146.668 320.659 138.551 325.587 130.282C325.9 130.636 326.166 130.858 326.328 131.127C330.862 138.72 335.381 146.318 339.916 153.908C340.25 154.466 340.399 154.925 340.017 155.562C335.358 163.317 330.737 171.092 326.097 178.859C326.025 178.979 325.892 179.071 325.603 179.358C320.697 171.13 315.846 162.995 310.968 154.814" fill="#181818"/>
<path fill-rule="evenodd" clip-rule="evenodd" d="M28.1707 154.81C23.7189 147.343 19.3102 139.948 14.7354 132.278C10.155 139.96 5.74509 147.357 1.36214 154.709C2.7268 157.637 13.9662 176.209 14.9116 177.056C19.3164 169.666 23.7075 162.3 28.1707 154.81ZM14.7354 130.087C19.7396 138.48 24.5694 146.581 29.4746 154.807C24.6384 162.924 19.7834 171.07 14.9116 179.247C13.9349 178.357 1.78966 158.278 0.0488892 154.728C4.86123 146.655 9.71303 138.515 14.7354 130.087Z" fill="#181818"/>
<path fill-rule="evenodd" clip-rule="evenodd" d="M325.707 340.102C330.303 332.39 334.716 324.987 339.096 317.641C336.876 313.186 326.45 296.068 325.502 295.365C321.084 302.782 316.673 310.188 312.276 317.569C316.732 325.047 321.123 332.413 325.707 340.102V340.102ZM325.77 292.938C330.758 301.309 335.594 309.426 340.444 317.565C335.578 325.732 330.743 333.844 325.799 342.138C325.454 341.689 325.186 341.405 324.992 341.083C320.511 333.581 316.044 326.07 311.549 318.574C311.148 317.902 311.053 317.374 311.486 316.65C316.045 309.069 320.558 301.469 325.086 293.875C325.236 293.626 325.43 293.402 325.77 292.938" fill="#181818"/>
<path fill-rule="evenodd" clip-rule="evenodd" d="M156.838 317.478C158.556 321.03 169.454 338.992 170.406 339.796C174.832 332.371 179.245 324.964 183.654 317.561C179.198 310.085 174.788 302.692 170.221 295.032C165.636 302.724 161.223 310.123 156.838 317.478V317.478ZM170.329 293.011C175.258 301.287 180.095 309.4 184.959 317.565C180.106 325.707 175.271 333.823 170.343 342.091C170.029 341.738 169.764 341.519 169.6 341.246C165.067 333.655 160.546 326.06 156.011 318.468C155.679 317.912 155.53 317.453 155.913 316.816C160.573 309.059 165.193 301.284 169.831 293.517C169.903 293.396 170.037 293.304 170.329 293.011Z" fill="#181818"/>
<path fill-rule="evenodd" clip-rule="evenodd" d="M14.7392 340.102C19.354 332.356 23.767 324.949 28.1707 317.559C23.7031 310.069 19.2977 302.682 14.7341 295.032C10.1425 302.734 5.73068 310.136 1.3026 317.565C5.73883 325.008 10.1506 332.408 14.7392 340.102ZM14.659 342.164C9.69747 333.838 4.86123 325.723 0 317.565C4.85498 309.419 9.69105 301.3 14.6056 293.052C14.8971 293.348 15.1448 293.524 15.2826 293.755C19.8429 301.389 24.3877 309.031 28.9479 316.666C29.2833 317.224 29.4244 317.684 29.0432 318.318C24.4128 326.031 19.8198 333.766 15.2125 341.489C15.1135 341.655 14.9649 341.794 14.659 342.164" fill="#181818"/>
</svg>
