<svg width="122" height="84" viewBox="0 0 122 84" fill="none" xmlns="http://www.w3.org/2000/svg">
<path d="M92.3192 64.7143C97.3968 64.7143 101.505 60.5541 101.505 55.4694L101.551 9.24489C101.551 4.1602 97.3968 0 92.3192 0H18.4638C13.3863 0 9.23192 4.1602 9.23192 9.24489V55.4694C9.23192 60.5541 13.3863 64.7143 18.4638 64.7143H4.61596C2.07718 64.7143 0 66.7944 0 69.3367C0 71.8791 2.07718 73.9592 4.61596 73.9592H106.167C108.706 73.9592 110.783 71.8791 110.783 69.3367C110.783 66.7944 108.706 64.7143 106.167 64.7143H92.3192ZM23.0798 9.24489H87.7033C90.242 9.24489 92.3192 11.325 92.3192 13.8673V50.8469C92.3192 53.3893 90.242 55.4694 87.7033 55.4694H23.0798C20.541 55.4694 18.4638 53.3893 18.4638 50.8469V13.8673C18.4638 11.325 20.541 9.24489 23.0798 9.24489Z" fill="url(#paint0_linear_55_628)"/>
<path d="M105.369 45.1412L105.373 45.1499L105.377 45.1585C106.526 47.6524 110.179 47.7592 111.334 45.1324L112.62 42.2704L115.486 40.9788L115.495 40.9749L115.504 40.9708C118.043 39.7974 118.043 36.1976 115.504 35.0241L115.495 35.0201L115.486 35.0162L112.62 33.7246L111.33 30.8538L111.326 30.8451L111.322 30.8364C110.15 28.2935 106.549 28.2935 105.377 30.8364L105.373 30.8451L105.369 30.8538L104.079 33.7246L101.213 35.0162L101.204 35.0201L101.195 35.0241C98.6565 36.1976 98.6565 39.7974 101.195 40.9708L101.204 40.9749L101.213 40.9788L104.079 42.2704L105.369 45.1412ZM116.442 53.7148L116.436 53.7019L116.43 53.689C115.258 51.1461 111.657 51.1461 110.485 53.689L110.479 53.7019L110.473 53.7148L109.974 54.8387L108.829 55.3415L108.811 55.3492L108.794 55.3573C108.726 55.3887 108.66 55.4219 108.595 55.4566C108.888 54.3375 108.755 53.1128 108.145 52.0377L108.141 52.0309L108.137 52.0242L104.024 44.9047C102.887 42.9105 100.435 42.0813 98.3272 42.9908L95.7038 44.093L95.3546 41.2587C95.3545 41.2576 95.3544 41.2565 95.3542 41.2554C95.0801 38.9817 93.1375 37.2572 90.853 37.2572H82.6447C80.387 37.2572 78.4126 38.9581 78.1671 41.2444L77.8192 44.0676L75.1959 42.9653C73.0887 42.0559 70.6359 42.885 69.4994 44.879L65.3858 51.9987L65.3819 52.0055L65.3781 52.0123C64.2633 53.977 64.7299 56.5163 66.5734 57.9039C66.5747 57.9048 66.576 57.9058 66.5772 57.9067L68.8217 59.6062L66.5456 61.3296L66.5361 61.3368L66.5267 61.3441C64.7244 62.7428 64.2273 65.236 65.3527 67.2194L65.3565 67.2262L65.3604 67.2329L69.4739 74.3526C70.6104 76.3466 73.0631 77.1757 75.1703 76.2664L77.7938 75.1641L78.143 77.9985C78.1432 77.9997 78.1433 78.0009 78.1435 78.0022C78.4178 80.2756 80.3603 81.9999 82.6447 81.9999H90.853C93.1375 81.9999 95.0801 80.2753 95.3542 78.0016C95.3544 78.0006 95.3545 77.9995 95.3546 77.9985L95.7038 75.1641L98.3274 76.2664C100.435 77.1757 102.888 76.3465 104.024 74.3524L108.137 67.2329L108.141 67.2262L108.145 67.2194C109.26 65.2548 108.793 62.7157 106.95 61.328C106.949 61.327 106.947 61.326 106.946 61.3249L104.705 59.6286L106.91 57.9592C106.764 59.2694 107.392 60.6563 108.794 61.3041L108.807 61.31L108.82 61.3158L109.941 61.815L110.444 62.9627L110.451 62.9803L110.459 62.9978C111.631 65.5408 115.233 65.5408 116.405 62.9978L116.411 62.9849L116.416 62.972L116.915 61.8482L118.061 61.3454L118.078 61.3376L118.096 61.3295C120.635 60.156 120.635 56.5563 118.096 55.3828L118.091 55.3806L116.948 54.8561L116.442 53.7148ZM86.7615 53.9813C89.8728 53.9813 92.3853 56.4933 92.3853 59.6158C92.3853 62.7383 89.8728 65.2503 86.7615 65.2503C83.6503 65.2503 81.1377 62.7383 81.1377 59.6158C81.1377 56.4933 83.6503 53.9813 86.7615 53.9813Z" fill="url(#paint1_linear_55_628)" stroke="#2E2E2E" stroke-width="4"/>
<ellipse cx="87" cy="60.5" rx="5" ry="4.5" fill="#2E2E2E"/>
<defs>
<linearGradient id="paint0_linear_55_628" x1="55.3915" y1="0" x2="55.3915" y2="73.9592" gradientUnits="userSpaceOnUse">
<stop stop-color="#6E7DD1"/>
<stop offset="1" stop-color="#4F5A98"/>
</linearGradient>
<linearGradient id="paint1_linear_55_628" x1="92.3767" y1="30.9292" x2="92.3767" y2="79.9999" gradientUnits="userSpaceOnUse">
<stop stop-color="#6E7DD1"/>
<stop offset="1" stop-color="#4F5A98"/>
</linearGradient>
</defs>
</svg>
