<svg width="80" height="80" viewBox="0 0 80 80" fill="none" xmlns="http://www.w3.org/2000/svg">
<path d="M76.8 0H3.2C1.43 0 0 1.43 0 3.2V76.8C0 78.57 1.43 80 3.2 80H76.8C78.57 80 80 78.57 80 76.8V3.2C80 1.43 78.57 0 76.8 0ZM40.11 40.61L20.91 56.71C20.39 57.15 19.6 56.78 19.6 56.1V49.83C19.6 49.6 19.71 49.37 19.89 49.22L30.87 40L19.89 30.78C19.7981 30.7074 19.7241 30.6146 19.6738 30.5088C19.6235 30.4031 19.5983 30.2871 19.6 30.17V23.9C19.6 23.22 20.39 22.85 20.91 23.29L40.11 39.38C40.5 39.7 40.5 40.29 40.11 40.61ZM60.4 56.1C60.4 56.54 60.06 56.9 59.65 56.9H41.15C40.74 56.9 40.4 56.54 40.4 56.1V51.3C40.4 50.86 40.74 50.5 41.15 50.5H59.65C60.06 50.5 60.4 50.86 60.4 51.3V56.1Z" fill="url(#paint0_linear_41_275)"/>
<defs>
<linearGradient id="paint0_linear_41_275" x1="40" y1="0" x2="40" y2="80" gradientUnits="userSpaceOnUse">
<stop stop-color="#6E7DD1"/>
<stop offset="1" stop-color="#4F5A98"/>
</linearGradient>
</defs>
</svg>
